<svg width="185" height="199" viewBox="0 0 185 199" fill="none" xmlns="http://www.w3.org/2000/svg">
<path d="M179.351 97.016C182.347 113.441 188.42 146.729 173.887 168.998C147.917 208.792 58.9174 207.083 19.92 155.61C17.1964 152.015 -5.64509 120.87 1.31236 81.2616C10.2777 30.2213 63.7772 -6.70633 106.237 3.30071C133.098 9.63137 150.292 33.5047 157.27 43.2043C160.239 47.3317 173.836 66.7903 179.351 97.016Z" fill="#F0EDFF"/>
<path d="M37.7362 95.4652C37.7872 95.5072 37.8384 95.549 37.8897 95.5907C40.9259 98.0599 44.65 100.182 49.2482 101.604C50.1627 101.813 51.0772 102.022 51.9917 102.231C53.2862 100.121 54.1657 97.8645 51.6128 96.2292C47.6481 93.6895 49.4461 85.5593 51.2945 83.0116C53.5823 79.8581 58.769 72.3982 52.6972 68.3684C47.6426 65.0136 43.7426 63.9586 45.1415 56.2569C46.5404 48.5552 43.7929 42.7693 37.273 41.4835C30.4117 40.1304 27.1428 28.9791 20.8552 30.7094C9.89941 33.7242 14.6981 52.832 25.2774 60.8571C35.8568 68.8822 28.0702 71.5972 26.2944 77.729C23.8701 86.1002 34.9779 87.1808 37.0167 91.2799C37.7073 92.6682 37.8633 94.109 37.7362 95.4652Z" fill="url(#paint0_linear_22_722)"/>
<mask id="mask0_22_722" style="mask-type:luminance" maskUnits="userSpaceOnUse" x="14" y="30" width="42" height="74">
<path d="M36.3266 100.059L51.0627 103.919C52.4298 101.903 54.4643 98.056 51.6126 96.2292C47.6479 93.6895 49.446 85.5594 51.2944 83.0116C53.5821 79.8583 58.7688 72.3983 52.6971 68.3685C47.6424 65.0137 43.7424 63.9586 45.1413 56.2569C46.5403 48.5552 43.7928 42.7694 37.2728 41.4836C30.4116 40.1305 27.1427 28.9791 20.8551 30.7094C9.8993 33.7242 14.6979 52.8319 25.2773 60.857C35.8567 68.8822 28.07 71.5971 26.2943 77.729C23.87 86.1002 34.9778 87.1807 37.0166 91.2798C38.6148 94.4932 37.3575 97.9893 36.3266 100.059Z" fill="white"/>
</mask>
<g mask="url(#mask0_22_722)">
<g opacity="0.5">
<path d="M43.8305 99.3862L44.1589 99.4021C45.2352 73.614 34.6558 47.3911 16.5491 30.9667L16.3371 31.2365C34.3675 47.5917 44.9023 73.7052 43.8305 99.3862Z" fill="#FCFDFE"/>
<path d="M43.2961 85.2724L43.6151 85.3576C45.8927 75.5123 55.514 69.9326 55.611 69.8774L55.457 69.5655C55.3588 69.6213 45.6098 75.2719 43.2961 85.2724Z" fill="#FCFDFE"/>
<path d="M43.908 94.6364L44.2263 94.5487C41.8468 84.5863 25.2522 78.8358 25.0848 78.7789L24.9856 79.1156C25.1511 79.1719 41.5737 84.8635 43.908 94.6364Z" fill="#FCFDFE"/>
<path d="M36.9012 60.9212L37.2255 60.8631C35.9728 52.8158 42.9722 42.8161 43.043 42.716L42.7816 42.5022C42.7098 42.6034 35.6252 52.7252 36.9012 60.9212Z" fill="#FCFDFE"/>
<path d="M29.4012 46.6434L29.6359 46.3961C23.5736 39.7614 11.8873 39.4126 11.7698 39.41L11.7626 39.763C11.8786 39.7655 23.4334 40.112 29.4012 46.6434Z" fill="#FCFDFE"/>
</g>
</g>
<mask id="mask1_22_722" style="mask-type:luminance" maskUnits="userSpaceOnUse" x="17" y="7" width="50" height="106">
<path d="M57.4296 112.288L41.1311 112.228C41.1311 112.228 38.0914 103.236 42.1056 96.9115C50.2957 84.0085 39.2044 77.2032 34.956 73.6063C28.5488 68.1818 25.1048 60.3998 34.5613 57.0519C44.0177 53.704 34.5753 37.9433 23.0525 30.7849C11.7767 23.7799 16.8615 -1.79473 42.5625 10.9594C57.9111 18.5761 55.448 36.0763 56.1599 45.2313C56.8718 54.3864 69.5405 55.1899 65.1685 66.3547C61.4341 75.8915 54.3741 82.8296 59.7245 89.415C65.0748 96.0004 65.6071 103.364 57.4296 112.288Z" fill="white"/>
</mask>
<g mask="url(#mask1_22_722)">
<path d="M57.4297 112.288L41.1312 112.228C41.1312 112.228 38.0915 103.236 42.1057 96.9115C50.2959 84.0085 39.2046 77.2032 34.9561 73.6062C28.549 68.1818 25.7401 61.1931 33.4799 56.6944C42.2371 51.6045 34.5755 37.9433 23.0527 30.7849C11.7769 23.7799 16.8617 -1.79476 42.5628 10.9594C57.9114 18.5761 55.4482 36.0762 56.1601 45.2313C56.872 54.3864 69.5407 55.1898 65.1688 66.3547C61.4344 75.8914 54.3743 82.8295 59.7247 89.415C65.0749 96.0004 65.6073 103.364 57.4297 112.288Z" fill="url(#paint1_linear_22_722)"/>
</g>
<mask id="mask2_22_722" style="mask-type:luminance" maskUnits="userSpaceOnUse" x="17" y="7" width="50" height="106">
<path d="M57.4296 112.288L41.1311 112.228C41.1311 112.228 38.0914 103.236 42.1056 96.9115C50.2957 84.0085 39.2044 77.2032 34.956 73.6063C28.5488 68.1818 25.1048 60.3998 34.5613 57.0519C44.0177 53.704 34.5753 37.9433 23.0525 30.7849C11.7767 23.7799 16.8615 -1.79473 42.5625 10.9594C57.9111 18.5761 55.448 36.0763 56.1599 45.2313C56.8718 54.3864 69.5405 55.1899 65.1685 66.3547C61.4341 75.8915 54.3741 82.8296 59.7245 89.415C65.0748 96.0004 65.6071 103.364 57.4296 112.288Z" fill="white"/>
</mask>
<g mask="url(#mask2_22_722)">
<g opacity="0.5">
<path d="M50.3703 113.887L50.0321 113.819C50.0712 113.594 53.9139 91.0477 51.4495 67.4626C49.1794 45.7344 40.9358 18.6529 14.5559 13.0283L14.6229 12.6657C26.366 15.1694 35.5532 22.0593 41.9294 33.1438C47.0229 41.9984 50.3412 53.5335 51.7924 67.4289C54.2608 91.0679 50.4095 113.662 50.3703 113.887Z" fill="#BEB8F2"/>
<path d="M44.4075 37.8994L44.0661 37.8523C45.5196 25.6492 41.2449 8.29179 41.2016 8.11791L41.5339 8.02216C41.5774 8.19686 45.8694 25.6247 44.4075 37.8994Z" fill="#BEB8F2"/>
<path d="M39.9706 30.6388C28.4124 22.8442 17.5789 26.5245 17.4709 26.5626L17.3636 26.2116C17.4733 26.1727 28.4536 22.4357 40.1536 30.3258L39.9706 30.6388Z" fill="#BEB8F2"/>
<path d="M52.2786 82.9761C48.4866 65.5351 26.4366 61.1806 26.2184 61.1575L26.2297 60.7884C26.4458 60.7893 48.788 65.2961 52.6136 82.892L52.2786 82.9761Z" fill="#BEB8F2"/>
<path d="M52.4082 75.592L52.0714 75.5154C54.2732 64.3339 65.5959 56.6759 65.7101 56.5999L65.8915 56.914C65.7786 56.9893 54.5789 64.5666 52.4082 75.592Z" fill="#BEB8F2"/>
<path d="M50.5641 110.257C50.0893 103.472 41.0916 98.0686 41.0009 98.0148L41.1669 97.6912C41.5444 97.9145 50.4185 103.245 50.9071 110.23L50.5641 110.257Z" fill="#BEB8F2"/>
<path d="M51.5408 104.931L51.2018 104.868C52.0614 99.5678 59.5416 93.6875 61.9997 91.7553C62.3471 91.4822 62.6469 91.2465 62.6927 91.1932L62.949 91.4397C62.8854 91.5159 62.6865 91.6733 62.2029 92.0535C59.7726 93.9641 52.3766 99.7781 51.5408 104.931Z" fill="#BEB8F2"/>
</g>
</g>
<path d="M131.463 102.321C133.257 106.483 131.547 110.646 129.907 113.447C129.515 113.45 129.288 113.567 128.893 113.67C125.324 114.602 123.651 114.128 120.023 114.41C119.243 114.471 116.923 113.846 115.991 113.52L114.263 112.879C114.263 112.879 111.196 102.756 116.015 99.96C120.834 97.1639 118.989 87.0891 118.585 81.5946C117.489 66.6864 132.486 68.0415 132.503 48.763C132.507 43.6355 130.92 33.8555 134.944 29.7715C139.528 25.1187 142.875 29.683 145.823 25.7921C150.431 19.7109 157.907 17.5294 162.364 23.7878C166.762 29.9646 161.418 42.2603 148.131 52.1427C139.347 60.3923 139.21 62.862 139.901 68.8764C140.386 73.0892 144.126 84.0634 138.803 88.4456C133.481 92.8278 129.412 97.5631 131.463 102.321Z" fill="url(#paint2_linear_22_722)"/>
<mask id="mask3_22_722" style="mask-type:luminance" maskUnits="userSpaceOnUse" x="113" y="20" width="51" height="97">
<path d="M127.591 116.854L114.554 113.247C114.554 113.247 111.196 102.756 116.015 99.9601C120.834 97.1639 118.989 87.0892 118.585 81.5947C117.489 66.6865 132.486 68.0416 132.503 48.7631C132.507 43.6356 130.92 33.8556 134.944 29.7716C139.528 25.1188 142.875 29.683 145.823 25.7922C150.431 19.711 157.907 17.5295 162.364 23.7879C166.762 29.9647 161.418 42.2604 148.131 52.1428C139.347 60.3924 139.21 62.8621 139.901 68.8765C140.386 73.0892 144.126 84.0634 138.803 88.4456C133.481 92.8278 129.412 97.5631 131.463 102.321C134.584 109.56 127.591 116.854 127.591 116.854Z" fill="white"/>
</mask>
<g mask="url(#mask3_22_722)">
<g opacity="0.5">
<path d="M121.912 114.567L121.647 114.531C121.844 112.836 122.062 111.129 122.295 109.458C124.021 97.0829 126.759 85.329 130.435 74.5222C133.549 65.3654 137.378 56.7589 141.816 48.942C145.384 42.6557 149.364 36.8434 153.644 31.6667C156.653 28.0276 159.778 24.7377 162.933 21.8888C163.483 21.3922 164.071 20.9174 164.639 20.4582C165.397 19.8464 166.181 19.2138 166.879 18.5247L167.06 18.7359C166.351 19.4346 165.563 20.0715 164.8 20.6875C164.234 21.1444 163.649 21.6169 163.105 22.1084C159.96 24.9484 156.844 28.2284 153.844 31.8572C149.574 37.021 145.604 42.8195 142.044 49.0914C137.615 56.8922 133.794 65.4815 130.685 74.6207C127.016 85.4092 124.282 97.1444 122.559 109.5C122.326 111.169 122.109 112.874 121.912 114.567Z" fill="#FCFDFE"/>
<path d="M137.012 58.8403L136.77 58.7186C141.636 47.578 137.363 26.9956 137.319 26.789L137.58 26.7253C137.623 26.9329 141.916 47.6104 137.012 58.8403Z" fill="#FCFDFE"/>
<path d="M125.943 91.2868L125.69 91.1961C128.172 83.2094 142.091 77.0443 142.231 76.9829L142.332 77.2486C142.193 77.3094 128.387 83.4248 125.943 91.2868Z" fill="#FCFDFE"/>
<path d="M124.9 95.9493L124.636 95.908C125.372 90.4687 123.671 82.6284 119.846 73.8314C119.654 73.3891 119.654 73.3891 119.66 73.3351L119.925 73.3729L119.793 73.354L119.921 73.3184C119.931 73.3495 120.004 73.5165 120.088 73.71C123.935 82.5572 125.644 90.4551 124.9 95.9493Z" fill="#FCFDFE"/>
<path d="M122.312 111.479L122.07 111.358C124.443 105.867 132.554 103.7 132.636 103.679L132.699 103.957C132.618 103.978 124.631 106.113 122.312 111.479Z" fill="#FCFDFE"/>
<path d="M121.509 114.589C120.503 109.828 118.192 105.222 114.444 100.507L114.647 100.321C118.424 105.072 120.753 109.719 121.769 114.526L121.509 114.589Z" fill="#FCFDFE"/>
<path d="M151.369 34.9504L151.135 34.8143C154.161 28.7823 156.039 21.6915 156.656 19.3614C156.806 18.7974 156.859 18.5991 156.889 18.5334L157.129 18.6588C157.107 18.7093 157.021 19.0317 156.913 19.44C156.294 21.7775 154.41 28.8908 151.369 34.9504Z" fill="#FCFDFE"/>
<path d="M145.098 43.9761L144.911 43.7717C149.174 39.2639 161.136 39.4081 161.643 39.4164L161.639 39.7031C161.516 39.7012 149.281 39.5525 145.098 43.9761Z" fill="#FCFDFE"/>
</g>
</g>
<mask id="mask4_22_722" style="mask-type:luminance" maskUnits="userSpaceOnUse" x="107" y="46" width="69" height="98">
<path d="M110.295 138.375L125.848 143.612C125.848 143.612 131.276 136.027 129.23 128.696C125.054 113.736 137.542 110.852 142.604 108.803C150.238 105.713 155.71 99.4142 147.639 93.1516C139.567 86.889 153.003 74.9327 166.001 71.8517C178.721 68.8367 181.072 42.8074 152.984 46.6174C136.21 48.8928 133.633 66.3739 130.378 74.8694C127.122 83.3648 114.821 80.0161 115.846 92.0784C116.721 102.382 121.498 111.288 114.545 115.828C107.592 120.367 105.012 127.213 110.295 138.375Z" fill="white"/>
</mask>
<g mask="url(#mask4_22_722)">
<path d="M110.295 138.375L125.848 143.612C125.848 143.612 131.276 136.027 129.23 128.696C125.054 113.736 137.542 110.852 142.604 108.803C150.238 105.713 154.882 99.964 148.77 93.1622C141.855 85.4663 153.003 74.9327 166.001 71.8517C178.721 68.8367 181.072 42.8074 152.984 46.6174C136.21 48.8928 133.633 66.3739 130.378 74.8694C127.122 83.3648 114.821 80.0161 115.846 92.0784C116.721 102.382 121.498 111.288 114.545 115.828C107.592 120.367 105.012 127.213 110.295 138.375Z" fill="url(#paint3_linear_22_722)"/>
</g>
<mask id="mask5_22_722" style="mask-type:luminance" maskUnits="userSpaceOnUse" x="107" y="46" width="69" height="98">
<path d="M110.295 138.375L125.848 143.612C125.848 143.612 131.276 136.027 129.23 128.696C125.054 113.736 137.542 110.852 142.604 108.803C150.238 105.713 155.71 99.4142 147.639 93.1516C139.567 86.889 153.003 74.9327 166.001 71.8517C178.721 68.8367 181.072 42.8074 152.984 46.6174C136.21 48.8928 133.633 66.3739 130.378 74.8694C127.122 83.3648 114.821 80.0161 115.846 92.0784C116.721 102.382 121.498 111.288 114.545 115.828C107.592 120.367 105.012 127.213 110.295 138.375Z" fill="white"/>
</mask>
<g mask="url(#mask5_22_722)">
<g opacity="0.5">
<path d="M116.574 142.192L116.916 142.238C116.942 142.01 119.624 119.271 128.611 97.59C136.89 77.6159 152.369 54.4791 179.098 57.6854L179.136 57.3181C167.238 55.8906 156.541 59.4743 147.344 67.9691C139.997 74.7551 133.587 84.6726 128.294 97.4464C119.288 119.178 116.6 141.965 116.574 142.192Z" fill="#BEB8F2"/>
<path d="M143.643 71.6974L143.982 71.7633C146.031 59.6593 154.991 44.5025 155.081 44.3508L154.791 44.1516C154.7 44.304 145.704 59.5223 143.643 71.6974Z" fill="#BEB8F2"/>
<path d="M149.916 66.2176C163.127 62.5417 172.418 69.5683 172.51 69.6397L172.711 69.3399C172.617 69.2673 163.203 62.1389 149.83 65.8598L149.916 66.2176Z" fill="#BEB8F2"/>
<path d="M123.455 112.108C131.978 96.715 154.221 99.7257 154.436 99.7745L154.529 99.419C154.323 99.3497 131.758 96.3893 123.159 111.919L123.455 112.108Z" fill="#BEB8F2"/>
<path d="M125.409 105.028L125.752 105.064C126.8 93.6907 118.162 82.7137 118.075 82.6041L117.813 82.8445C117.9 82.953 126.443 93.8132 125.409 105.028Z" fill="#BEB8F2"/>
<path d="M117.411 138.669C119.773 132.356 129.871 130.128 129.972 130.106L129.905 129.743C129.482 129.834 119.523 132.032 117.092 138.532L117.411 138.669Z" fill="#BEB8F2"/>
<path d="M117.979 133.275L118.32 133.325C118.992 127.994 113.517 119.959 111.718 117.319C111.463 116.946 111.244 116.624 111.215 116.558L110.902 116.71C110.941 116.803 111.086 117.018 111.44 117.538C113.219 120.148 118.633 128.092 117.979 133.275Z" fill="#BEB8F2"/>
</g>
</g>
<path d="M125.016 142.607C124.958 142.636 124.9 142.666 124.841 142.694C121.382 144.405 117.321 145.619 112.546 145.946C111.611 145.939 110.676 145.932 109.741 145.926C108.899 143.566 108.491 141.159 111.311 140.151C115.691 138.586 115.561 130.23 114.265 127.316C112.661 123.708 109.087 115.225 115.823 112.691C121.431 110.581 125.451 110.45 125.624 102.605C125.798 94.7607 129.638 89.744 136.263 89.9927C143.235 90.2545 148.657 80.1179 154.452 83.2586C164.549 88.7313 156.042 106.286 144.105 111.682C132.168 117.079 139.23 121.527 139.738 127.925C140.432 136.661 129.367 135.153 126.556 138.686C125.604 139.882 125.163 141.253 125.016 142.607Z" fill="url(#paint4_linear_22_722)"/>
<mask id="mask6_22_722" style="mask-type:luminance" maskUnits="userSpaceOnUse" x="109" y="82" width="50" height="66">
<path d="M125.475 147.419L110.311 147.788C109.379 145.504 108.161 141.277 111.311 140.151C115.691 138.586 115.561 130.231 114.265 127.316C112.661 123.708 109.087 115.225 115.823 112.691C121.431 110.581 125.451 110.45 125.624 102.605C125.798 94.7607 129.638 89.744 136.263 89.9928C143.235 90.2546 148.657 80.1179 154.452 83.2587C164.549 88.7314 156.042 106.286 144.105 111.682C132.168 117.079 139.23 121.527 139.738 127.925C140.432 136.661 129.367 135.153 126.556 138.686C124.353 141.455 124.881 145.16 125.475 147.419Z" fill="white"/>
</mask>
<g mask="url(#mask6_22_722)">
<g opacity="0.5">
<path d="M118.28 145.03L117.956 144.97C122.062 119.536 137.638 96.3662 158.606 84.5036L158.759 84.816C137.879 96.6287 122.369 119.702 118.28 145.03Z" fill="#FCFDFE"/>
<path d="M121.624 131.369L121.296 131.379C121.04 121.238 112.759 113.568 112.676 113.492L112.888 113.223C112.973 113.3 121.365 121.068 121.624 131.369Z" fill="#FCFDFE"/>
<path d="M119.154 140.374L118.861 140.214C123.177 131.034 140.534 129.247 140.709 129.23L140.739 129.582C140.566 129.598 123.388 131.367 119.154 140.374Z" fill="#FCFDFE"/>
<path d="M132.739 109.062L132.434 108.931C135.267 101.36 130.43 89.979 130.381 89.8649L130.679 89.7164C130.729 89.8318 135.624 101.352 132.739 109.062Z" fill="#FCFDFE"/>
<path d="M142.919 96.8485L142.74 96.5528C149.987 91.472 161.47 93.8281 161.586 93.8526L161.522 94.1991C161.408 94.1747 150.054 91.8468 142.919 96.8485Z" fill="#FCFDFE"/>
</g>
</g>
<path d="M131.833 7.64724V179.16C131.833 181.725 129.794 182.277 127.481 182.358L48.2042 186.763L47.0032 186.805C44.5387 186.891 42.519 184.791 42.519 182.137V4.67024C42.519 2.01637 44.5387 -0.0840187 47.0032 0.00258491L48.633 0.0598422L128.2 6.70784C130.513 6.78912 131.833 5.08237 131.833 7.64724Z" fill="url(#paint5_linear_22_722)"/>
<path d="M134.303 7.64724V179.16C134.303 181.725 132.414 183.89 130.101 183.971L49.4729 186.805C47.0084 186.891 44.9888 184.791 44.9888 182.137V4.67024C44.9888 2.01637 47.0085 -0.0840187 49.4729 0.00258491L130.101 2.83614C132.414 2.91742 134.303 5.08237 134.303 7.64724Z" fill="url(#paint6_linear_22_722)"/>
<path d="M131.694 17.076V175.962C131.694 178.357 129.928 180.376 127.767 180.449L51.9509 183.007C49.6568 183.085 47.7769 181.125 47.7769 178.652V14.589C47.7769 12.1164 49.6568 10.1522 51.9509 10.224L127.767 12.5991C129.928 12.6668 131.694 14.6814 131.694 17.076Z" fill="url(#paint7_linear_22_722)"/>
<path d="M91.9051 6.75754C91.9051 7.66132 91.235 8.37216 90.4078 8.34527C89.5802 8.31839 88.9088 7.56305 88.9088 6.65831C88.9088 5.75351 89.5801 5.04274 90.4078 5.07065C91.235 5.09849 91.9051 5.85377 91.9051 6.75754Z" fill="#DE8BDF"/>
<path d="M119.928 113.565L59.3777 114.437C58.612 114.448 57.9909 113.79 57.9909 112.967V98.7233C57.9909 97.9001 58.612 97.2283 59.3777 97.2227L119.928 96.7827C120.656 96.7774 121.245 97.423 121.245 98.2246V112.094C121.245 112.896 120.655 113.554 119.928 113.565Z" fill="#F4F7FA"/>
<path d="M119.791 139.801L59.5223 141.342C58.6768 141.363 57.9909 140.644 57.9909 139.735V125.803C57.9909 124.894 58.6768 124.144 59.5223 124.128L119.791 123.018C120.594 123.003 121.245 123.709 121.245 124.594V138.161C121.245 139.046 120.594 139.78 119.791 139.801Z" fill="#F4F7FA"/>
<path d="M113.814 54.2234C113.814 68.5197 103.228 80.111 90.038 80.1133C76.6998 80.1155 65.777 68.2917 65.777 53.7039C65.777 39.1161 76.6998 27.5285 90.038 27.8193C103.228 28.1068 113.814 39.927 113.814 54.2234Z" fill="#F0EDFF"/>
<path d="M99.8412 46.2178C99.8412 52.1085 95.463 56.8397 90.0444 56.7851C84.606 56.7303 80.1827 51.8787 80.1827 45.949C80.1827 40.0194 84.606 35.2888 90.0444 35.3827C95.463 35.4762 99.8412 40.3271 99.8412 46.2178Z" fill="#4D34FA"/>
<path d="M90.038 80.1133C95.8686 80.1123 101.187 77.8478 105.305 74.0965C103.904 66.3087 97.6218 60.386 90.038 60.3243C82.4055 60.2622 76.0086 66.1508 74.5722 74.0236C78.7835 77.8303 84.1786 80.1143 90.038 80.1133Z" fill="#4D34FA"/>
<path d="M98.3726 107.506L65.3259 107.894C64.2016 107.907 63.281 106.926 63.281 105.714C63.281 104.502 64.2016 103.502 65.3259 103.491L98.3726 103.164C99.4652 103.153 100.358 104.12 100.358 105.314C100.358 106.507 99.4652 107.494 98.3726 107.506Z" fill="#4D34FA"/>
<path d="M68.2253 132.505C68.2253 134.054 67.0613 135.336 65.6237 135.369C64.1846 135.403 63.0166 134.172 63.0166 132.62C63.0166 131.068 64.1845 129.786 65.6237 129.756C67.0612 129.726 68.2253 130.957 68.2253 132.505Z" fill="#4D34FA"/>
<path d="M77.9689 132.291C77.9689 133.833 76.8143 135.11 75.3885 135.143C73.9609 135.176 72.8024 133.95 72.8024 132.405C72.8024 130.86 73.9609 129.583 75.3885 129.553C76.8143 129.523 77.9689 130.749 77.9689 132.291Z" fill="#4D34FA"/>
<path d="M87.6339 132.079C87.6339 133.615 86.4886 134.886 85.0743 134.919C83.6583 134.952 82.5091 133.731 82.5091 132.191C82.5091 130.652 83.6583 129.381 85.0743 129.351C86.4885 129.322 87.6339 130.543 87.6339 132.079Z" fill="#4D34FA"/>
<path d="M97.221 131.868C97.221 133.398 96.0848 134.664 94.6819 134.697C93.2773 134.729 92.1374 133.513 92.1374 131.98C92.1374 130.447 93.2773 129.181 94.6819 129.151C96.0849 129.122 97.221 130.338 97.221 131.868Z" fill="url(#paint8_linear_22_722)"/>
<path d="M106.731 131.659C106.731 133.183 105.604 134.444 104.213 134.476C102.819 134.508 101.688 133.297 101.688 131.77C101.688 130.243 102.819 128.982 104.213 128.953C105.604 128.924 106.731 130.136 106.731 131.659Z" fill="url(#paint9_linear_22_722)"/>
<path d="M90.0341 80.748C83.4185 80.748 77.1867 77.9349 72.4854 72.8261C67.7785 67.7111 65.1862 60.9202 65.1862 53.704C65.1862 46.4269 67.8162 39.6505 72.5917 34.6235C77.2845 29.6835 83.4826 27.04 90.0498 27.1848C96.5799 27.3272 102.705 30.2189 107.297 35.3272C111.881 40.4257 114.405 47.1366 114.405 54.2235C114.405 61.3127 111.879 67.9718 107.293 72.974C102.698 77.9859 96.5703 80.7469 90.0379 80.748C90.0367 80.748 90.0353 80.748 90.0341 80.748ZM89.5441 28.4487C83.4775 28.4487 77.7681 30.9516 73.4187 35.5302C68.8718 40.3165 66.3678 46.7708 66.3678 53.7041C66.3678 60.5839 68.8389 67.0581 73.3259 71.9339C77.8031 76.7992 83.7373 79.4786 90.0341 79.4788C90.0357 79.4788 90.0363 79.4788 90.0378 79.4788C102.822 79.4766 113.224 68.1471 113.224 54.2236C113.224 40.2929 102.817 28.7328 90.0259 28.4539C89.8654 28.4504 89.7041 28.4487 89.5441 28.4487Z" fill="white"/>
<path opacity="0.3" d="M134.303 7.54923C134.303 5.00402 132.424 2.91768 130.056 2.83449L86.0864 1.28928C102.396 19.8562 106.063 35.4335 106.481 46.0787C107.676 76.4642 83.3092 89.7026 87.84 122.933C89.0821 132.042 91.8289 137.764 92.9019 153.5C93.8165 166.916 92.8604 178.021 91.9079 185.313L130.101 183.971C132.414 183.89 134.303 181.725 134.303 179.16L134.303 7.54923Z" fill="url(#paint10_linear_22_722)"/>
<path opacity="0.3" d="M69.2018 93.1509C69.6654 78.5146 64.9968 72.3959 63.7596 70.897C62.8858 69.8383 62.0765 69.0884 56.035 63.7305C51.5466 59.7498 47.8058 56.45 45.1506 54.1123C45.0966 95.1147 45.0427 136.117 44.9886 177.12C46.7975 161.381 50.2739 149.512 52.919 141.933C60.3232 120.718 68.607 111.931 69.2018 93.1509Z" fill="url(#paint11_linear_22_722)"/>
<path d="M146.825 151.428C149.47 149.712 148.361 140.619 144.474 134.354C138.955 125.459 127.402 121.571 125.159 124.376C122.863 127.247 130.112 137.388 131.289 139.035C135.561 145.01 143.697 153.459 146.825 151.428Z" fill="url(#paint12_linear_22_722)"/>
<path d="M176.854 189.043C176.4 189.687 176.377 190.796 176.859 191.296C177.332 191.786 177.945 191.326 179.783 191.209C181.75 191.084 182.304 191.533 183.605 191.01C184.131 190.799 185.05 190.32 184.998 189.908C184.961 189.618 184.464 189.515 182.798 189.087C180.432 188.48 180.439 188.434 179.944 188.394C178.7 188.293 177.452 188.192 176.854 189.043Z" fill="url(#paint13_linear_22_722)"/>
<path d="M176.816 185.557L178.883 188.501C178.874 188.707 178.136 189.674 177.198 189.619L174.715 186.951L176.816 185.557Z" fill="url(#paint14_linear_22_722)"/>
<path d="M166.176 196.539C165.735 197.193 165.734 198.303 166.225 198.791C166.708 199.271 167.312 198.796 169.147 198.638C171.112 198.469 171.674 198.905 172.965 198.353C173.486 198.13 174.396 197.63 174.335 197.219C174.293 196.931 173.794 196.839 172.12 196.449C169.743 195.895 169.748 195.849 169.253 195.82C168.008 195.748 166.758 195.675 166.176 196.539Z" fill="url(#paint15_linear_22_722)"/>
<path d="M166.096 193.122L168.163 196.067C168.154 196.272 167.416 197.239 166.478 197.185L163.995 194.516L166.096 193.122Z" fill="url(#paint16_linear_22_722)"/>
<path d="M103.52 125.837C106.613 124.564 111.355 123.038 117.253 122.802C123.893 122.536 129.225 122.322 133.025 125.546C145.666 136.27 139.47 164.533 138.556 167.677C137.469 171.417 135.402 173.957 135.402 173.957C134.163 175.48 132.946 176.37 132.287 176.839C122.778 183.598 116.867 187.8 110.625 186.083C109.795 185.855 106.021 184.449 103.938 181.076C103.567 180.475 103.335 179.704 103.276 178.628C102.307 160.837 104.26 142.973 103.52 125.837Z" fill="#462FE1"/>
<path opacity="0.3" d="M108.972 147.042C107.703 143.317 109.014 139.052 106.189 137.191C105.154 136.51 103.867 136.221 102.466 136.255C102.64 149.351 102.885 162.434 103.188 176.1C103.288 180.614 103.813 180.837 107.888 184.791C112.61 189.372 116.495 187.895 123.47 186.392C114.331 180.361 112.059 177.082 112.99 171.722C114.074 165.48 124.713 163.632 124.283 159.195C123.827 154.492 111.744 155.185 108.972 147.042Z" fill="#4D34FA"/>
<path d="M106.435 126.073C103.296 124.19 96.0777 129.548 92.1336 134.168C90.3004 136.315 83.918 143.791 85.9033 153.408C86.2267 154.976 87.7203 162.304 94.3674 165.656C100.319 168.658 108.174 167.509 114.331 162.672C115.169 161.895 116.006 161.118 116.844 160.342C117.662 159.418 118.481 158.495 119.299 157.572C117.926 156.55 115.604 155.089 112.383 154.222C107.476 152.9 105.268 154.752 104.055 153.316C102.562 151.55 105.891 148.503 106.763 140.724C106.999 138.625 109.942 128.177 106.435 126.073Z" fill="url(#paint17_linear_22_722)"/>
<path d="M112.135 183.934C112.521 191.345 115.115 187.24 120.986 180.59C127.17 173.587 141.72 161.277 151.431 165.977C158.663 169.477 157.962 179.83 169.524 186.328C171.561 187.473 173.344 188.129 174.44 188.486C175.692 187.241 176.945 185.997 178.198 184.752C177.525 180.882 174.525 166.125 161.98 156.822C158.947 154.573 153.159 150.241 145.84 150.342C126.053 150.617 111.778 177.099 112.135 183.934Z" fill="url(#paint18_linear_22_722)"/>
<path d="M103.018 180.496C103.101 184.808 105.722 188.761 108.675 190.691C115.23 194.975 125.047 190.353 130.546 185.626C137.236 179.875 137.234 174.24 140.653 174.268C145.965 174.311 146.891 187.957 158.746 194.619C160.783 195.764 162.566 196.42 163.662 196.777C164.914 195.532 166.167 194.288 167.419 193.043C165.363 184.687 162.181 178.614 159.834 174.835C156.906 170.121 154.088 165.584 148.631 162.295C142.884 158.833 137.394 158.672 135.062 158.633C120.347 158.387 102.802 169.245 103.018 180.496Z" fill="url(#paint19_linear_22_722)"/>
<path d="M142.962 154.592L106.537 161.649L117.107 164.625L143.519 157.116L142.962 154.592Z" fill="url(#paint20_linear_22_722)"/>
<path d="M105.444 162.955L105.444 162.955C105.577 163.686 106.121 164.248 106.805 164.364L119.301 166.81L118.737 163.41L106.537 161.649C105.859 161.586 105.313 162.238 105.444 162.955Z" fill="url(#paint21_linear_22_722)"/>
<path d="M111.297 159.884C111.064 159.878 111.862 156.801 112.949 156.908C114.035 157.016 119.631 159.087 120.322 160.279C121.014 161.471 121.014 161.471 121.014 161.471C121.014 161.471 118.855 162.117 117.406 161.912C115.957 161.707 113.189 159.937 111.297 159.884Z" fill="url(#paint22_linear_22_722)"/>
<path d="M117.621 138.992L116.821 164.647C116.794 165.532 118.03 166.746 118.849 166.637L156.829 161.002C157.454 160.919 157.941 160.381 158 159.707L161.049 134.743C161.129 133.837 159.567 133.036 158.725 133.13L118.822 137.606C118.156 137.681 117.643 138.272 117.621 138.992Z" fill="url(#paint23_linear_22_722)"/>
<path d="M118.545 139.662L117.746 165.317C117.718 166.203 118.434 166.905 119.252 166.796L157.754 161.673C158.379 161.59 158.866 161.051 158.925 160.378L161.124 135.37C161.204 134.464 160.492 133.706 159.649 133.801L119.747 138.277C119.081 138.352 118.568 138.943 118.545 139.662Z" fill="url(#paint24_linear_22_722)"/>
<path opacity="0.3" d="M142.589 156.916C139.106 155.656 140.089 152.629 135.847 149.304C130.249 144.918 125.04 147.444 122.9 143.865C122.233 142.75 121.826 140.964 122.636 137.953L119.747 138.277C119.081 138.351 118.568 138.943 118.545 139.662L117.746 165.317C117.719 166.203 118.434 166.905 119.252 166.796L157.754 161.673C158.379 161.59 158.866 161.052 158.925 160.378L159.228 156.927C158.006 156.322 156.56 155.799 154.9 155.577C149.144 154.805 146.598 158.367 142.589 156.916Z" fill="url(#paint25_linear_22_722)"/>
<path d="M117.533 113.031C117.646 115.675 117.444 117.783 117.234 119.23C116.994 120.888 116.794 121.321 116.533 121.677C116.533 121.677 116.45 121.79 116.356 121.891C116.115 122.149 113.096 122.781 112.206 123.004C112.112 123.028 110.369 123.483 109.869 124.49C109.865 124.497 109.856 124.516 109.85 124.546C109.678 125.553 115.031 128.745 120.41 127.707C123.703 127.073 126.643 124.923 126.421 123.865C126.198 122.801 122.912 123.509 121.859 121.609C121.127 120.287 121.828 118.341 122.681 116.719C121.74 114.983 118.474 114.767 117.533 113.031Z" fill="url(#paint26_linear_22_722)"/>
<path d="M124.595 116.115C126.699 115.459 128.056 107.677 126.286 106.736C125.44 106.287 124.813 107.898 121.439 109.34C118.739 110.494 117.598 110.121 116.851 111.394C116.113 112.651 116.567 114.472 116.799 115.763C116.9 116.323 117.238 116.587 117.504 117.056C117.873 117.706 118.447 118.736 119.378 120.453C119.56 120.055 119.812 119.568 120.158 119.058C120.291 118.862 120.82 118.097 122.387 116.954C123.388 116.223 124.355 116.19 124.595 116.115Z" fill="url(#paint27_linear_22_722)"/>
<path d="M117.879 118.839C117.879 118.839 118.745 121.555 121.488 122.008C123.944 122.413 125.498 116.664 124.206 115.06C123.775 114.524 122.777 114.108 121.885 114.161C121.358 114.193 121.144 114.374 120.282 114.408C119.487 114.439 119.293 114.299 119.024 114.451C118.687 114.64 118.35 115.22 118.473 117.038C118.114 116.426 117.6 116.101 117.166 116.207C117.097 116.224 116.905 116.306 116.774 116.468C116.299 117.054 116.69 118.039 117.879 118.839Z" fill="url(#paint28_linear_22_722)"/>
<path d="M118.986 114.076C119.084 114.197 118.63 114.58 118.468 115.236C118.151 116.51 119.046 118.341 120.255 118.765C120.969 119.016 121.267 118.59 122.503 118.74C123.269 118.832 123.87 119.082 124.243 119.267C124.333 120.767 123.686 122.089 122.675 122.533C121.586 123.011 120.467 122.298 119.999 122C119.686 121.801 118.683 121.165 118.336 119.966C117.976 118.716 118.691 118.184 118.17 117.272C117.907 116.813 117.493 116.543 117.208 115.706C117.131 115.479 117.088 115.284 117.064 115.154C117.835 114.591 118.845 113.9 118.986 114.076Z" fill="url(#paint29_linear_22_722)"/>
<path d="M123.257 119.581C123.257 119.581 122.673 119.75 121.781 119.481C121.738 119.468 121.686 119.471 121.676 119.494C121.636 119.581 122.131 120.131 122.698 120.097C123.101 120.072 123.475 119.757 123.444 119.646C123.431 119.6 123.344 119.585 123.257 119.581Z" fill="url(#paint30_linear_22_722)"/>
<path d="M3.01809 88.76C2.00863 85.5745 2.71563 81.9125 4.27353 79.3528C6.90619 75.0275 10.3375 76.5308 13.7743 71.7343C15.9975 68.6317 18.0206 65.9821 20.4891 63.9976C22.3051 62.5377 26.6022 60.8841 28.2808 62.0319C33.3035 65.4666 24.088 94.711 13.9277 96.3758C9.86233 97.0417 4.53552 93.5484 3.01809 88.76Z" fill="url(#paint31_linear_22_722)"/>
<path d="M22.2916 181.11C22.5597 181.725 22.8626 182.626 22.9426 183.746C22.9776 184.237 22.9636 184.682 22.9271 185.069C22.6323 185.535 21.2538 187.139 19.3923 187.534C18.2406 187.779 16.3737 186.73 18.4886 185.311C20.6035 183.891 20.9196 183.549 20.298 179.921C20.1381 178.987 20.2009 178.646 20.3374 178.58C20.6561 178.427 21.5645 179.858 22.2916 181.11Z" fill="url(#paint32_linear_22_722)"/>
<path d="M32.0451 183.882C32.3132 184.497 32.6161 185.397 32.6961 186.518C32.7311 187.009 32.7171 187.454 32.6806 187.84C32.3858 188.307 31.0074 189.91 29.1457 190.306C27.9941 190.551 26.1271 189.502 28.2421 188.082C30.357 186.663 30.6731 186.321 30.0515 182.692C29.8916 181.759 29.9544 181.417 30.0909 181.352C30.4097 181.198 31.3179 182.63 32.0451 183.882Z" fill="url(#paint33_linear_22_722)"/>
<path d="M42.1883 108.074C42.8876 112.648 43.5868 117.223 44.2861 121.797C42.7547 126.124 41.3305 130.839 40.1238 135.931C35.7651 154.325 33.0471 172.041 32.8483 184.731C31.8889 185.104 30.9294 185.477 29.9699 185.85C28.2507 178.876 28.7702 168.332 27.2417 155.897C25.4359 141.207 26.6639 129.722 26.0352 129.682C25.4327 129.643 23.7453 140.157 23.7422 152.164C23.739 164.856 22.38 175.074 23.2559 182.41C22.1063 182.484 20.9568 182.558 19.8072 182.632C16.6237 172.93 15.2327 161.372 13.621 146.088C12.5017 135.475 11.1808 121.375 17.7813 106.828C18.4404 105.376 20.7415 102.151 21.1729 101.354C28.7421 102.91 34.6192 106.518 42.1883 108.074Z" fill="url(#paint34_linear_22_722)"/>
<path opacity="0.25" d="M40.1239 135.931C41.3305 130.839 42.7548 126.124 44.2862 121.797C43.5869 117.223 42.8877 112.648 42.1884 108.074C34.6193 106.518 28.7422 102.91 21.1731 101.355C20.7417 102.151 18.4406 105.376 17.7815 106.828C15.5565 111.732 14.2342 116.584 13.4983 121.27C28.1421 121.098 32.38 124.374 33.5467 127.394C35.404 132.201 29.7553 137.075 31.7539 146.803C32.3549 149.729 33.2525 151.17 33.3579 154.835C33.4962 159.645 32.035 160.111 31.8062 165.004C31.5558 170.357 29.83 175.588 30.6392 179.383C31.1423 181.742 31.7314 183.66 32.1841 184.989C32.4056 184.903 32.627 184.817 32.8485 184.731C33.0472 172.041 35.7652 154.325 40.1239 135.931Z" fill="url(#paint35_linear_22_722)"/>
<path d="M35.9138 44.5936C36.3834 45.2676 35.6858 46.172 35.5466 49.4643C35.4829 50.9702 35.5674 52.2329 35.6619 53.1298C35.6885 53.9412 35.7312 54.6936 35.7902 55.3584C35.8334 55.846 35.8797 56.2271 35.9449 56.6328C36.0657 57.3852 36.2388 58.1312 36.4593 58.8504C36.4739 58.898 36.452 58.949 36.4101 58.9685C36.4076 58.9696 36.405 58.9707 36.4024 58.9716C36.3555 58.9883 36.305 58.9608 36.2896 58.9104C36.0664 58.1824 35.8911 57.4271 35.7687 56.6655C35.7027 56.2548 35.6559 55.8693 35.6122 55.3765C35.5811 55.0262 35.5549 54.6502 35.5327 54.2563C35.4324 55.294 35.4118 56.4403 35.7553 57.9711C36.7977 62.617 33.4409 65.675 30.7952 65.798C27.7441 65.9398 25.6759 63.3425 25.0363 62.4925C22.4583 59.0667 21.962 53.4837 24.3866 49.4005C27.5627 44.0514 34.7632 42.9416 35.9138 44.5936Z" fill="url(#paint36_linear_22_722)"/>
<path d="M28.1985 49.0664C28.3291 48.5471 28.9195 46.4297 30.7236 45.1023C34.1465 42.5837 39.6331 44.6046 42.779 47.5705C46.0707 50.674 44.7018 52.8209 47.9376 56.2669C51.4521 60.0097 53.9184 58.3751 58.8031 61.9906C60.7245 63.4127 65.9026 67.2452 66.2487 73.224C66.5478 78.3902 63.1466 83.5638 58.985 85.5598C51.8604 88.977 42.9382 82.8745 38.7285 77.2625C34.691 71.88 37.4153 70.5625 31.6748 60.1671C29.5992 56.4084 27.223 52.9469 28.1985 49.0664Z" fill="url(#paint37_linear_22_722)"/>
<path d="M23.0642 64.1348C20.4617 66.965 19.7609 70.3678 19.5558 71.8886C18.9179 76.6194 20.6476 80.4782 21.0538 81.4919C22.973 86.2812 22.266 95.721 11.0788 116.048C12.1422 117.001 15.8087 124.049 17.5428 120.669C19.9071 116.061 30.633 83.6364 20.2882 122.061C20.1518 122.567 21.206 122.466 21.6853 122.658C25.1213 124.036 29.2478 125.039 33.9364 124.977C41.2849 124.878 46.8844 122.203 49.8446 120.483C47.8373 115.455 45.7359 108.651 44.8369 100.393C43.1217 84.6394 46.6905 71.9344 49.1778 65.0833C46.9097 63.399 39.7263 58.5213 31.2271 60.0977C29.1096 60.4904 25.8055 61.1537 23.0642 64.1348Z" fill="#4D34FA"/>
<path opacity="0.3" d="M44.837 100.393C43.1219 84.6394 46.6907 71.9342 49.1779 65.0832C46.9099 63.399 39.7264 58.5213 31.2272 60.0976C29.1095 60.4904 25.8055 61.1538 23.0642 64.1348C20.9921 66.3883 20.1273 69.0015 19.7567 70.742C19.8201 70.7306 19.9076 70.7154 20.0118 70.6999C25.2462 69.9233 31.2914 74.4469 33.3581 78.7264C36.807 85.8678 28.8732 91.7029 29.0716 103.021C29.1789 109.139 31.6542 116.373 39.2214 124.452C43.978 123.569 47.6427 121.762 49.8447 120.483C47.8375 115.455 45.736 108.651 44.837 100.393Z" fill="#3423A8"/>
<path d="M33.2144 54.4317C32.4687 56.0577 31.8391 58.0914 32.6602 59.4557C33.1604 60.2868 33.9884 60.7498 34.806 61.1862C36.7383 62.2173 37.635 61.7985 38.0164 62.4241C38.8559 63.8011 36.4789 69.0557 32.6017 69.512C28.743 69.966 25.251 65.4498 25.8318 63.5422C26.3559 61.8209 30.1544 62.3605 30.8335 60.1853C31.1754 59.0902 30.5495 57.8741 30.0003 57.0506L29.5458 57.0933L33.2144 54.4317Z" fill="url(#paint38_linear_22_722)"/>
<path opacity="0.4" d="M38.0164 62.4241C37.6349 61.7986 36.7382 62.2172 34.806 61.1861C33.9883 60.7499 33.1604 60.2867 32.6602 59.4556C31.8392 58.0914 32.4687 56.0576 33.2144 54.4318L29.5457 57.0933L30.0002 57.0506C30.4361 57.7043 30.9122 58.605 30.9224 59.4965C31.1891 59.6946 31.4143 59.912 31.5739 60.123C31.0678 61.2957 30.8962 62.308 30.8303 62.9628C30.7277 63.9837 30.6515 64.742 31.0592 65.4584C31.5041 66.2399 32.2641 66.5138 32.9286 66.7533C34.4051 67.2853 35.7848 67.1086 36.6913 66.8754C37.9445 65.1931 38.4877 63.1973 38.0164 62.4241Z" fill="url(#paint39_linear_22_722)"/>
<path d="M32.5373 55.9985C32.5373 55.9985 32.6656 58.0862 30.7743 58.4357C28.444 58.8663 27.1596 52.3012 27.6682 51.8219C28.258 51.2661 28.9997 52.236 30.4725 51.5878C31.0927 51.3149 31.5117 50.3247 31.9873 51.2259C32.5284 52.2513 32.5142 54.2404 32.5142 54.2404C32.5142 54.2404 32.9922 53.6504 33.1689 54.2258C33.4001 54.9789 32.9351 55.5586 32.5373 55.9985Z" fill="url(#paint40_linear_22_722)"/>
<path d="M29.0604 48.395C28.2351 49.1296 27.6704 50.6702 28.1108 51.5253C28.7435 52.7536 31.057 51.8021 31.8208 53.3036C32.1556 53.9619 32.0505 54.8122 32.2562 54.821C32.4266 54.8283 32.5835 54.2486 32.7279 53.7733C33.5239 51.153 34.1747 50.9214 34.0592 50.1329C33.8245 48.5304 30.7548 46.8866 29.0604 48.395Z" fill="url(#paint41_linear_22_722)"/>
<path d="M42.7555 64.8576C45.3258 65.0327 45.584 64.2046 48.4288 66.4436C56.5981 72.8726 61.897 91.0064 53.7962 99.7709C49.2906 104.646 41.068 107.622 34.0729 103.901C28.3784 100.873 26.2782 94.8848 25.7682 93.2812C25.8619 91.6739 25.9557 90.0666 26.0494 88.4593C29.248 92.1661 31.9958 93.1028 33.989 93.2175C37.3818 93.4126 38.7913 91.2373 44.5947 90.8938C46.8556 90.76 48.1184 91.0028 48.3821 90.3419C48.9271 88.9755 43.9931 86.7741 41.6695 82.7239C39.9756 79.7715 38.9493 74.5815 42.7555 64.8576Z" fill="url(#paint42_linear_22_722)"/>
<path d="M32.7297 51.2949C32.1503 51.8479 33.0967 53.9983 35.0133 58.2764C36.1928 60.9095 36.7826 62.226 37.1869 62.8119C39.3635 65.9662 43.2904 68.6464 47.5025 68.8624C50.393 69.0107 50.9283 67.8709 53.2433 68.5553C56.7356 69.5878 58.4527 73.0494 58.6302 72.897C58.8264 72.7286 56.9301 68.3316 52.6548 64.3648C49.1567 61.1191 48.0491 61.8573 42.5005 57.2839C42.0979 56.9521 40.3946 55.5395 37.9711 53.8936C35.122 51.9586 33.3061 50.7446 32.7297 51.2949Z" fill="url(#paint43_linear_22_722)"/>
<path d="M9.98645 75.5133L15.9275 91.3024C16.0283 91.5949 16.249 91.8211 16.5256 91.9155L23.3744 94.2524C24.0818 94.4937 24.759 93.8018 24.5699 93.0307L20.9087 78.1034C20.8249 77.7617 20.5852 77.0037 19.9788 76.7968L11.6366 74.2065C10.8931 73.9698 9.71748 74.7321 9.98645 75.5133Z" fill="url(#paint44_linear_22_722)"/>
<path d="M9.91112 75.7634L15.1714 91.0443C15.2722 91.3368 15.4929 91.5631 15.7695 91.6574L22.6183 93.9943C23.3258 94.2357 24.0029 93.5437 23.8137 92.7726L20.1525 77.8453C20.0687 77.5037 19.825 77.2338 19.5097 77.1333L11.0619 74.4428C10.3184 74.206 9.64214 74.9821 9.91112 75.7634Z" fill="url(#paint45_linear_22_722)"/>
<path d="M26.4152 89.7518L25.6947 89.0294C25.6947 89.0294 24.6709 87.525 23.8996 86.7964C23.1283 86.0678 22.3729 85.921 21.5539 86.6221C20.735 87.3232 21.4307 88.4828 22.0227 89.4946C22.3829 90.1101 23.398 90.5004 24.243 90.7365C24.837 90.9025 25.8774 91.7359 25.8774 91.7359L26.4152 89.7518Z" fill="url(#paint46_linear_22_722)"/>
<path d="M10.7102 82.8442L11.3884 82.0758C11.3884 82.0758 12.7972 80.9884 13.4816 80.1657C14.166 79.343 14.3088 78.5327 13.6629 77.6474C13.0169 76.7619 11.9318 77.4998 10.9852 78.1276C10.4093 78.5095 10.0378 79.5969 9.8113 80.5027C9.65197 81.1396 8.86778 82.2505 8.86778 82.2505L10.7102 82.8442Z" fill="url(#paint47_linear_22_722)"/>
<path d="M8.75496 81.2917C9.63311 81.7622 10.5114 82.2324 11.3896 82.7029C11.6584 83.0703 14.8581 87.5828 13.1499 91.9097C12.9277 92.4726 12.0876 94.6008 10.4308 94.9776C7.87408 95.5592 4.14944 91.7942 4.26964 87.7527C4.35013 85.0439 6.14765 82.5556 8.75496 81.2917Z" fill="url(#paint48_linear_22_722)"/>
<defs>
<linearGradient id="paint0_linear_22_722" x1="28.7541" y1="36.3399" x2="51.4764" y2="103.131" gradientUnits="userSpaceOnUse">
<stop stop-color="#FF9085"/>
<stop offset="1" stop-color="#FB6FBB"/>
</linearGradient>
<linearGradient id="paint1_linear_22_722" x1="28.9087" y1="10.2773" x2="65.3846" y2="107.838" gradientUnits="userSpaceOnUse">
<stop stop-color="#FFC444"/>
<stop offset="0.9964" stop-color="#F36F56"/>
</linearGradient>
<linearGradient id="paint2_linear_22_722" x1="155.081" y1="18.0075" x2="101.935" y2="126.166" gradientUnits="userSpaceOnUse">
<stop stop-color="#AA80F9"/>
<stop offset="0.9964" stop-color="#6165D7"/>
</linearGradient>
<linearGradient id="paint3_linear_22_722" x1="166.192" y1="50.4027" x2="102.166" y2="130.105" gradientUnits="userSpaceOnUse">
<stop offset="0.0036" stop-color="#E38DDD"/>
<stop offset="1" stop-color="#9571F6"/>
</linearGradient>
<linearGradient id="paint4_linear_22_722" x1="145.611" y1="86.9348" x2="108.892" y2="146.197" gradientUnits="userSpaceOnUse">
<stop stop-color="#FFC444"/>
<stop offset="0.9964" stop-color="#F36F56"/>
</linearGradient>
<linearGradient id="paint5_linear_22_722" x1="150.466" y1="153.471" x2="69.5146" y2="89.1895" gradientUnits="userSpaceOnUse">
<stop stop-color="#444B8C"/>
<stop offset="0.9964" stop-color="#26264F"/>
</linearGradient>
<linearGradient id="paint6_linear_22_722" x1="86.6671" y1="177.942" x2="98.7505" y2="-124.435" gradientUnits="userSpaceOnUse">
<stop stop-color="#444B8C"/>
<stop offset="0.9964" stop-color="#26264F"/>
</linearGradient>
<linearGradient id="paint7_linear_22_722" x1="47.7769" y1="96.6159" x2="131.694" y2="96.6159" gradientUnits="userSpaceOnUse">
<stop stop-color="#FF9085"/>
<stop offset="1" stop-color="#FB6FBB"/>
</linearGradient>
<linearGradient id="paint8_linear_22_722" x1="46.3756" y1="25.8192" x2="128.797" y2="182.702" gradientUnits="userSpaceOnUse">
<stop stop-color="#AA80F9"/>
<stop offset="0.9964" stop-color="#6165D7"/>
</linearGradient>
<linearGradient id="paint9_linear_22_722" x1="54.1435" y1="21.738" x2="136.564" y2="178.62" gradientUnits="userSpaceOnUse">
<stop stop-color="#AA80F9"/>
<stop offset="0.9964" stop-color="#6165D7"/>
</linearGradient>
<linearGradient id="paint10_linear_22_722" x1="86.0864" y1="93.3014" x2="134.303" y2="93.3014" gradientUnits="userSpaceOnUse">
<stop stop-color="#FF9085"/>
<stop offset="1" stop-color="#FB6FBB"/>
</linearGradient>
<linearGradient id="paint11_linear_22_722" x1="44.4278" y1="115.59" x2="85.4765" y2="117.012" gradientUnits="userSpaceOnUse">
<stop stop-color="#FF9085"/>
<stop offset="1" stop-color="#FB6FBB"/>
</linearGradient>
<linearGradient id="paint12_linear_22_722" x1="133.877" y1="141.147" x2="139.063" y2="134.542" gradientUnits="userSpaceOnUse">
<stop stop-color="#AA80F9"/>
<stop offset="0.9964" stop-color="#6165D7"/>
</linearGradient>
<linearGradient id="paint13_linear_22_722" x1="184.417" y1="188.22" x2="176.626" y2="190.926" gradientUnits="userSpaceOnUse">
<stop stop-color="#444B8C"/>
<stop offset="0.9964" stop-color="#26264F"/>
</linearGradient>
<linearGradient id="paint14_linear_22_722" x1="179.699" y1="189.431" x2="172.744" y2="185.305" gradientUnits="userSpaceOnUse">
<stop stop-color="#FFC444"/>
<stop offset="0.9964" stop-color="#F36F56"/>
</linearGradient>
<linearGradient id="paint15_linear_22_722" x1="173.722" y1="195.545" x2="165.979" y2="198.409" gradientUnits="userSpaceOnUse">
<stop stop-color="#444B8C"/>
<stop offset="0.9964" stop-color="#26264F"/>
</linearGradient>
<linearGradient id="paint16_linear_22_722" x1="168.979" y1="196.996" x2="162.024" y2="192.87" gradientUnits="userSpaceOnUse">
<stop stop-color="#FFC444"/>
<stop offset="0.9964" stop-color="#F36F56"/>
</linearGradient>
<linearGradient id="paint17_linear_22_722" x1="95.3735" y1="159.486" x2="113.911" y2="133.226" gradientUnits="userSpaceOnUse">
<stop stop-color="#AA80F9"/>
<stop offset="0.9964" stop-color="#6165D7"/>
</linearGradient>
<linearGradient id="paint18_linear_22_722" x1="140.937" y1="197.495" x2="156.534" y2="152.85" gradientUnits="userSpaceOnUse">
<stop stop-color="#444B8C"/>
<stop offset="0.9964" stop-color="#26264F"/>
</linearGradient>
<linearGradient id="paint19_linear_22_722" x1="144.775" y1="159.953" x2="125.276" y2="205.357" gradientUnits="userSpaceOnUse">
<stop stop-color="#444B8C"/>
<stop offset="0.9964" stop-color="#26264F"/>
</linearGradient>
<linearGradient id="paint20_linear_22_722" x1="133.136" y1="173.406" x2="125.556" y2="161.434" gradientUnits="userSpaceOnUse">
<stop stop-color="#311944"/>
<stop offset="1" stop-color="#893976"/>
</linearGradient>
<linearGradient id="paint21_linear_22_722" x1="110.413" y1="158.069" x2="114.714" y2="169.495" gradientUnits="userSpaceOnUse">
<stop stop-color="#311944"/>
<stop offset="1" stop-color="#893976"/>
</linearGradient>
<linearGradient id="paint22_linear_22_722" x1="111.36" y1="160.376" x2="120.51" y2="158.709" gradientUnits="userSpaceOnUse">
<stop stop-color="#FFC444"/>
<stop offset="0.9964" stop-color="#F36F56"/>
</linearGradient>
<linearGradient id="paint23_linear_22_722" x1="143.177" y1="155.289" x2="132.7" y2="143.461" gradientUnits="userSpaceOnUse">
<stop stop-color="#444B8C"/>
<stop offset="0.9964" stop-color="#26264F"/>
</linearGradient>
<linearGradient id="paint24_linear_22_722" x1="128.04" y1="178.625" x2="146.232" y2="136.409" gradientUnits="userSpaceOnUse">
<stop stop-color="#311944"/>
<stop offset="1" stop-color="#893976"/>
</linearGradient>
<linearGradient id="paint25_linear_22_722" x1="116.844" y1="152.711" x2="158.719" y2="149.743" gradientUnits="userSpaceOnUse">
<stop stop-color="#311944"/>
<stop offset="1" stop-color="#893976"/>
</linearGradient>
<linearGradient id="paint26_linear_22_722" x1="114.308" y1="133.801" x2="125.375" y2="110.117" gradientUnits="userSpaceOnUse">
<stop stop-color="#FFC444"/>
<stop offset="0.9964" stop-color="#F36F56"/>
</linearGradient>
<linearGradient id="paint27_linear_22_722" x1="111.485" y1="128.976" x2="126.126" y2="108.567" gradientUnits="userSpaceOnUse">
<stop stop-color="#444B8C"/>
<stop offset="0.9964" stop-color="#26264F"/>
</linearGradient>
<linearGradient id="paint28_linear_22_722" x1="120.914" y1="115.293" x2="116.534" y2="139.794" gradientUnits="userSpaceOnUse">
<stop stop-color="#FFC444"/>
<stop offset="0.9964" stop-color="#F36F56"/>
</linearGradient>
<linearGradient id="paint29_linear_22_722" x1="114.818" y1="127.33" x2="125.293" y2="112.729" gradientUnits="userSpaceOnUse">
<stop stop-color="#444B8C"/>
<stop offset="0.9964" stop-color="#26264F"/>
</linearGradient>
<linearGradient id="paint30_linear_22_722" x1="122.853" y1="118.652" x2="121.79" y2="121.584" gradientUnits="userSpaceOnUse">
<stop stop-color="#FFC444"/>
<stop offset="1" stop-color="#F36F56"/>
</linearGradient>
<linearGradient id="paint31_linear_22_722" x1="8.58673" y1="61.4698" x2="21.8521" y2="83.8996" gradientUnits="userSpaceOnUse">
<stop stop-color="#AA80F9"/>
<stop offset="0.9964" stop-color="#6165D7"/>
</linearGradient>
<linearGradient id="paint32_linear_22_722" x1="17.8945" y1="182.865" x2="23.096" y2="183.387" gradientUnits="userSpaceOnUse">
<stop stop-color="#AA80F9"/>
<stop offset="0.9964" stop-color="#6165D7"/>
</linearGradient>
<linearGradient id="paint33_linear_22_722" x1="27.648" y1="185.636" x2="32.8495" y2="186.159" gradientUnits="userSpaceOnUse">
<stop stop-color="#AA80F9"/>
<stop offset="0.9964" stop-color="#6165D7"/>
</linearGradient>
<linearGradient id="paint34_linear_22_722" x1="12.8818" y1="143.839" x2="44.6348" y2="143.325" gradientUnits="userSpaceOnUse">
<stop stop-color="#444B8C"/>
<stop offset="0.9964" stop-color="#26264F"/>
</linearGradient>
<linearGradient id="paint35_linear_22_722" x1="11.5476" y1="141.487" x2="42.1019" y2="144.435" gradientUnits="userSpaceOnUse">
<stop stop-color="#444B8C"/>
<stop offset="0.9964" stop-color="#26264F"/>
</linearGradient>
<linearGradient id="paint36_linear_22_722" x1="79.8159" y1="89.1705" x2="21.3424" y2="52.861" gradientUnits="userSpaceOnUse">
<stop stop-color="#311944"/>
<stop offset="1" stop-color="#6B3976"/>
</linearGradient>
<linearGradient id="paint37_linear_22_722" x1="79.0057" y1="90.4742" x2="20.5327" y2="54.165" gradientUnits="userSpaceOnUse">
<stop stop-color="#311944"/>
<stop offset="1" stop-color="#6B3976"/>
</linearGradient>
<linearGradient id="paint38_linear_22_722" x1="32.2104" y1="75.4844" x2="31.5925" y2="48.258" gradientUnits="userSpaceOnUse">
<stop stop-color="#FFC444"/>
<stop offset="0.9964" stop-color="#F36F56"/>
</linearGradient>
<linearGradient id="paint39_linear_22_722" x1="32.353" y1="71.6917" x2="35.7055" y2="49.6752" gradientUnits="userSpaceOnUse">
<stop stop-color="#FFC444"/>
<stop offset="0.9964" stop-color="#F36F56"/>
</linearGradient>
<linearGradient id="paint40_linear_22_722" x1="30.1866" y1="52.3972" x2="34.472" y2="75.1003" gradientUnits="userSpaceOnUse">
<stop stop-color="#FFC444"/>
<stop offset="0.9964" stop-color="#F36F56"/>
</linearGradient>
<linearGradient id="paint41_linear_22_722" x1="81.3777" y1="86.6552" x2="22.9044" y2="50.3458" gradientUnits="userSpaceOnUse">
<stop stop-color="#311944"/>
<stop offset="1" stop-color="#6B3976"/>
</linearGradient>
<linearGradient id="paint42_linear_22_722" x1="37.1353" y1="80.5651" x2="61.4286" y2="107.497" gradientUnits="userSpaceOnUse">
<stop stop-color="#AA80F9"/>
<stop offset="0.9964" stop-color="#6165D7"/>
</linearGradient>
<linearGradient id="paint43_linear_22_722" x1="79.887" y1="89.0548" x2="21.4139" y2="52.7455" gradientUnits="userSpaceOnUse">
<stop stop-color="#311944"/>
<stop offset="1" stop-color="#6B3976"/>
</linearGradient>
<linearGradient id="paint44_linear_22_722" x1="29.1571" y1="76.3154" x2="21.5523" y2="80.7576" gradientUnits="userSpaceOnUse">
<stop stop-color="#FFC444"/>
<stop offset="0.9964" stop-color="#F36F56"/>
</linearGradient>
<linearGradient id="paint45_linear_22_722" x1="8.1101" y1="81.1441" x2="37.7048" y2="89.8935" gradientUnits="userSpaceOnUse">
<stop stop-color="#FF9085"/>
<stop offset="1" stop-color="#FB6FBB"/>
</linearGradient>
<linearGradient id="paint46_linear_22_722" x1="21.8195" y1="86.3947" x2="29.0825" y2="94.878" gradientUnits="userSpaceOnUse">
<stop stop-color="#FFC444"/>
<stop offset="0.9964" stop-color="#F36F56"/>
</linearGradient>
<linearGradient id="paint47_linear_22_722" x1="13.8724" y1="77.9346" x2="4.99839" y2="84.4089" gradientUnits="userSpaceOnUse">
<stop stop-color="#FFC444"/>
<stop offset="0.9964" stop-color="#F36F56"/>
</linearGradient>
<linearGradient id="paint48_linear_22_722" x1="13.364" y1="83.5704" x2="-0.00384913" y2="97.1343" gradientUnits="userSpaceOnUse">
<stop stop-color="#AA80F9"/>
<stop offset="0.9964" stop-color="#6165D7"/>
</linearGradient>
</defs>
</svg>
