<svg width="323" height="251" viewBox="0 0 323 251" fill="none" xmlns="http://www.w3.org/2000/svg">
<path d="M292.246 0.191208H183.783V127.158H292.246V0.191208Z" fill="#E8E5FF"/>
<path d="M187.691 138.434L164.549 162.794C165.696 155.882 166.842 146.686 168.497 134.425C174.8 87.5726 139.397 81.8987 139.397 81.8987C139.397 81.8987 123.157 179.846 143.223 181.856C144.655 181.998 145.954 182.11 147.182 182.191L146.065 190.25C177.835 196.34 196.592 142.017 196.592 142.017L187.691 138.434Z" fill="#4D34FA"/>
<path opacity="0.46" d="M187.691 138.434L164.549 162.794C165.696 155.882 166.842 146.686 168.497 134.425C174.8 87.5726 139.397 81.8987 139.397 81.8987C139.397 81.8987 123.157 179.846 143.223 181.856C144.655 181.998 145.954 182.11 147.182 182.191L146.065 190.25C177.835 196.34 196.592 142.017 196.592 142.017L187.691 138.434Z" fill="white"/>
<path opacity="0.45" d="M141.244 250.013C219.231 250.013 282.451 240.179 282.451 228.049C282.451 215.918 219.231 206.084 141.244 206.084C63.2578 206.084 0.0373535 215.918 0.0373535 228.049C0.0373535 240.179 63.2578 250.013 141.244 250.013Z" fill="#F0EDFF"/>
<path d="M139.397 81.9088C136.757 80.9993 134.004 80.4629 131.216 80.3153C122.436 79.7469 98.4619 79.5947 70.7016 91.1454C35.6334 105.741 83.1049 203.942 83.1049 203.942L142.655 199.486C142.655 199.486 184.27 97.8545 139.397 81.9088Z" fill="#4D34FA"/>
<path d="M321.102 105.204L255.042 107.061L256.203 148.375L322.263 146.518L321.102 105.204Z" fill="#E8E5FF"/>
<path opacity="0.25" d="M255.026 107.081L288.785 132.141L321.092 105.223L255.026 107.081Z" fill="#C9C9C9"/>
<path opacity="0.08" d="M80.8009 98.291C80.8009 98.291 103.456 99.3059 102.431 134.435C101.405 169.564 117.28 160.358 117.28 160.358L143.213 119.068C143.213 119.068 151.475 118.104 152.622 126.802C153.353 132.415 143.487 156.379 136.382 172.67C134.412 177.221 133.959 182.286 135.088 187.115C136.218 191.944 138.871 196.281 142.655 199.486L83.1557 203.942L81.1257 199.486L80.8009 98.291Z" fill="black"/>
<path d="M95.0109 49.1447C95.0109 49.1447 99.9641 55.9959 101.629 61.5277C101.789 62.0641 101.841 62.627 101.783 63.1838C101.724 63.7406 101.556 64.2804 101.288 64.7719C101.021 65.2635 100.658 65.6972 100.222 66.048C99.7852 66.3988 99.2838 66.6597 98.7461 66.8158C95.9447 67.6177 91.9354 67.8308 88.8295 64.5321L82.8715 59.4571C82.8715 59.4571 79.2479 56.1685 81.5824 50.7788C83.9169 45.3892 92.2095 44.8208 95.0109 49.1447Z" fill="#F4A28C"/>
<path d="M86.3936 59.1627L83.3689 86.6997L98.6649 87.2782L94.7267 67.0087L86.3936 59.1627Z" fill="#F4A28C"/>
<path d="M93.3971 50.5251C91.207 51.9497 88.8605 53.1178 86.4037 54.0065C87.6357 54.6114 88.6661 55.5602 89.3704 56.7383C90.0747 57.9163 90.4227 59.273 90.3724 60.6446C90.3398 61.9777 89.8453 63.2582 88.9733 64.2672C88.1014 65.2761 86.9061 65.951 85.5917 66.1764L80.1412 56.7775C79.3158 55.46 78.8613 53.9443 78.8256 52.3901C78.7898 50.8359 79.1742 49.3009 79.9382 47.947C80.6053 46.7758 81.3443 45.647 82.1509 44.567C84.1809 41.8874 89.1848 41.3292 90.5145 38.071C90.6477 37.7438 90.8641 37.457 91.1422 37.239C91.4203 37.0211 91.7504 36.8794 92.1 36.8282C92.4496 36.7769 92.8065 36.8178 93.1355 36.9468C93.4644 37.0757 93.754 37.2883 93.9756 37.5635C96.0868 40.1416 98.2488 44.9121 95.3357 48.7285C94.7929 49.4301 94.1379 50.0371 93.3971 50.5251Z" fill="#24285B"/>
<path d="M91.0219 59.995C91.0219 59.995 89.2964 57.2342 87.3273 58.706C85.3582 60.1777 87.8247 64.1869 90.9001 62.8573L91.0219 59.995Z" fill="#F4A28C"/>
<path d="M97.9138 53.6208L101.608 55.2042C101.818 55.2949 102.002 55.4369 102.142 55.6172C102.282 55.7975 102.375 56.0103 102.411 56.2358C102.448 56.4614 102.427 56.6924 102.35 56.9077C102.274 57.123 102.144 57.3156 101.974 57.4677L99.5074 59.6499L97.9138 53.6208Z" fill="#F4A28C"/>
<path opacity="0.31" d="M94.5136 67.6684C92.5578 67.6915 90.6382 67.141 88.9919 66.085C88.9919 66.085 89.2254 71.16 95.8736 74.6414L94.5136 67.6684Z" fill="#CE8172"/>
<path d="M83.1049 203.942C83.1049 203.942 52.2591 215.412 59.7599 232.616C65.3526 245.527 93.7117 234.494 112.286 229.013C118.928 227.068 125.874 226.38 132.769 226.983C145.527 228.079 161.747 231.997 167.198 224.587C175.226 213.696 164.944 204.155 142.645 199.527L83.1049 203.942Z" fill="#24285B"/>
<path d="M88.4236 109.73C84.3636 91.7138 59.628 89.6939 52.6042 106.776C49.8536 113.455 48.1078 122.052 48.5442 133.004C50.29 171.422 57.9127 204.125 86.83 198.948C115.747 193.772 143.254 132.973 143.254 132.973L130.059 125.534L89.398 165.119C89.398 165.119 93.8741 133.583 88.4236 109.73Z" fill="#4D34FA"/>
<path opacity="0.46" d="M88.4236 109.73C84.3636 91.7138 59.628 89.6939 52.6042 106.776C49.8536 113.455 48.1078 122.052 48.5442 133.004C50.29 171.422 57.9127 204.125 86.83 198.948C115.747 193.772 143.254 132.973 143.254 132.973L130.059 125.534L89.398 165.119C89.398 165.119 93.8741 133.583 88.4236 109.73Z" fill="white"/>
<path d="M131.683 126.447C131.683 126.447 138.595 113.983 145.893 116.581C153.191 119.18 143.132 122.59 143.132 122.59C143.132 122.59 148.268 127.076 141.478 131.979L131.683 126.447Z" fill="#F4A28C"/>
<path d="M120.132 218.152L122.061 227.054C122.061 227.054 131.196 233.763 136.951 229.561C142.706 225.359 133.896 220.507 120.132 218.152Z" fill="#4D34FA"/>
<path d="M197.996 106.9L179.819 104.381L175.335 136.734L193.513 139.253L197.996 106.9Z" fill="#3CE3B1"/>
<path d="M196.592 142.027C196.592 142.027 200.652 126.802 190.857 126.802C181.063 126.802 184.838 142.91 196.592 142.027Z" fill="#F4A28C"/>
<path d="M79.796 87.7248C79.796 87.7248 79.6539 81.1983 84.3128 78.1432C87.8247 75.8493 95.9853 79.7367 99.7814 81.787C100.683 82.2506 101.405 83.0009 101.833 83.9197C102.261 84.8385 102.371 85.8736 102.146 86.8621C101.924 87.641 101.474 88.3357 100.853 88.8566C100.233 89.3775 99.4706 89.7009 98.6649 89.7852C93.1738 90.9626 79.796 87.7248 79.796 87.7248Z" fill="#4D34FA"/>
<path opacity="0.46" d="M79.796 87.7248C79.796 87.7248 79.6539 81.1983 84.3128 78.1432C87.8247 75.8493 95.9853 79.7367 99.7814 81.787C100.683 82.2506 101.405 83.0009 101.833 83.9197C102.261 84.8385 102.371 85.8736 102.146 86.8621C101.924 87.641 101.474 88.3357 100.853 88.8566C100.233 89.3775 99.4706 89.7009 98.6649 89.7852C93.1738 90.9626 79.796 87.7248 79.796 87.7248Z" fill="white"/>
<path d="M245.769 36.8428V15.8019H170.994V44.3538H245.769H260.233L245.769 36.8428Z" fill="#F93888"/>
<path d="M230.077 88.1511V67.1102H304.852V95.6621H230.077H215.613L230.077 88.1511Z" fill="#F98C3E"/>
<path d="M273.265 51.4893C277.122 51.4893 280.248 48.3628 280.248 44.5061C280.248 40.6494 277.122 37.5229 273.265 37.5229C269.408 37.5229 266.282 40.6494 266.282 44.5061C266.282 48.3628 269.408 51.4893 273.265 51.4893Z" fill="white"/>
<path d="M201.099 101.986C204.955 101.986 208.082 98.8591 208.082 95.0023C208.082 91.1456 204.955 88.0191 201.099 88.0191C197.242 88.0191 194.115 91.1456 194.115 95.0023C194.115 98.8591 197.242 101.986 201.099 101.986Z" fill="white"/>
<path d="M231.305 22.0645H184.869V27.3932H231.305V22.0645Z" fill="white"/>
<path opacity="0.37" d="M231.305 32.2144H184.869V37.5432H231.305V32.2144Z" fill="white"/>
<path d="M290.226 73.6468H243.79V78.9755H290.226V73.6468Z" fill="white"/>
<path opacity="0.37" d="M290.226 83.7967H243.79V89.1255H290.226V83.7967Z" fill="white"/>
<path opacity="0.58" d="M221.297 206.246C221.297 206.246 207.848 202.633 204.875 190.148C204.875 190.148 225.672 185.855 226.352 207.332L221.297 206.246Z" fill="#4D34FA"/>
<path opacity="0.73" d="M222.941 204.907C222.941 204.907 213.492 190.118 221.693 176.202C221.693 176.202 237.557 186.19 230.605 204.907H222.941Z" fill="#4D34FA"/>
<path d="M225.357 204.907C225.357 204.907 230.249 189.225 245.221 186.19C245.221 186.19 248.083 196.34 235.599 204.907H225.357Z" fill="#4D34FA"/>
<path d="M215.613 204.602L218.415 223.217H235.568L238.014 204.602H215.613Z" fill="#F93888"/>
<path d="M282.065 30.0829H264.557V33.605H282.065V30.0829Z" fill="#ADADAD"/>
<path opacity="0.55" d="M209.858 80.1427H192.349V83.6648H209.858V80.1427Z" fill="#ADADAD"/>
</svg>
