<svg width="309" height="192" viewBox="0 0 309 192" fill="none" xmlns="http://www.w3.org/2000/svg">
<path opacity="0.16" d="M154.28 191.15C239.47 191.15 308.53 182.491 308.53 171.81C308.53 161.129 239.47 152.47 154.28 152.47C69.0901 152.47 0.0299988 161.129 0.0299988 171.81C0.0299988 182.491 69.0901 191.15 154.28 191.15Z" fill="#9F91FC"/>
<path d="M205.73 154.55L232.32 138.66C232.32 138.66 239.76 134.98 245.32 138.28C250.88 141.58 247.03 145.57 242.32 142.92C242.32 142.92 242.7 150.81 238.13 149.68C233.56 148.55 232.55 147.26 232.55 147.26L212.47 168.33L205.73 154.55Z" fill="#F4A28C"/>
<path opacity="0.08" d="M205.73 154.55L232.32 138.66C232.32 138.66 239.76 134.98 245.32 138.28C250.88 141.58 247.03 145.57 242.32 142.92C242.32 142.92 242.7 150.81 238.13 149.68C233.56 148.55 232.55 147.26 232.55 147.26L212.47 168.33L205.73 154.55Z" fill="black"/>
<path d="M216.15 100C216.15 100 224.58 121.84 211.1 123.34C197.62 124.84 200.63 99.9 208.1 95.24C215.57 90.58 216.15 100 216.15 100Z" fill="#24285B"/>
<path d="M74.54 140.62L85.24 102.62C89.54 100.15 89.39 97.62 84.24 95.09C79.09 92.56 81.24 88.52 74.13 87.46C67.02 86.4 77.66 99.22 77.66 99.22L55.87 140.62L60.54 154L103.89 163.34L105.99 134.34L74.54 140.62Z" fill="#F4A28C"/>
<path opacity="0.08" d="M74.54 140.62L85.24 102.62C89.54 100.15 89.39 97.62 84.24 95.09C79.09 92.56 81.24 88.52 74.13 87.46C67.02 86.4 77.66 99.22 77.66 99.22L55.87 140.62L60.54 154L103.89 163.34L105.99 134.34L74.54 140.62Z" fill="black"/>
<path d="M222.63 89.46C222.63 89.46 220.43 95.52 217.63 98.93C217.083 99.595 216.295 100.016 215.438 100.1C214.581 100.185 213.726 99.9256 213.06 99.38C211.36 97.95 209.48 95.53 210.26 92.14L210.89 86.23C211.142 85.0594 211.75 83.9955 212.631 83.1845C213.512 82.3734 214.623 81.8548 215.81 81.7C220.23 80.87 224.16 85.84 222.63 89.46Z" fill="#F4A28C"/>
<path d="M210.98 87.21L194.58 100.5L202.55 109.02L211.06 96.26L210.98 87.21Z" fill="#F4A28C"/>
<path d="M221.05 93.2L221.63 96.2C221.674 96.3727 221.671 96.5539 221.621 96.725C221.572 96.8961 221.477 97.0508 221.348 97.1732C221.218 97.2955 221.058 97.3811 220.885 97.421C220.711 97.4608 220.53 97.4536 220.36 97.4L217.93 96.78L221.05 93.2Z" fill="#F4A28C"/>
<path opacity="0.31" d="M210.8 96.64C210.8 96.64 209.99 95.21 210.17 91.84C210.17 91.84 206.94 94.76 208.6 99.95L210.8 96.64Z" fill="#CE8172"/>
<path d="M214 90.5C214 90.5 215 88.23 213.23 87.62C211.46 87.01 210 90.27 212.15 91.62L214 90.5Z" fill="#F4A28C"/>
<path d="M214.53 90C214.53 90 215.27 87.23 212.97 86.84C210.67 86.45 209.53 89.6 211.75 91.84L214.53 90Z" fill="#F4A28C"/>
<path d="M207.1 114C210.471 118.389 213.04 123.338 214.69 128.62C218.44 140.62 223.36 161.89 214.69 170.5C205.34 179.78 103.38 170.5 103.38 170.5L106.38 129C106.38 129 136.72 116.35 155.63 103.78C177.72 89.1 193.63 94.72 203.39 108.89C204.57 110.66 205.82 112.37 207.1 114Z" fill="#4D34FA"/>
<path opacity="0.08" d="M198.11 134.93C198.11 134.93 207.67 126.74 216 133.12C216 133.12 212.49 121.12 208.66 116.21C204.83 111.3 192.06 115.19 198.11 134.93Z" fill="black"/>
<path opacity="0.33" d="M153.484 105.62L142.064 112.32C142.064 112.32 143.064 113.22 144.614 114.85C146.932 117.226 148.361 120.328 148.659 123.634C148.958 126.939 148.109 130.247 146.254 133C139.064 143.57 129.764 161.44 138.614 173.54C138.614 173.54 185.534 176.38 203.214 174.16L179.404 147.4L189.264 123.71L176.384 105L153.484 105.62Z" fill="black"/>
<path d="M103.37 170.54H64C59.4238 170.541 54.9842 168.981 51.4149 166.118C47.8456 163.254 45.3604 159.258 44.37 154.79L30.87 94.06L40.87 92.29L56.13 133.94C57.3834 137.354 59.7561 140.242 62.8615 142.134C65.9668 144.027 69.6216 144.811 73.23 144.36L105.56 140.29L103.37 170.54Z" fill="#F4A28C"/>
<path d="M223 87.54C223 87.54 220.93 89.19 216.56 88.54C213.04 88.05 214.83 91.54 212.29 94.06C211.19 95.14 211.45 98.79 211.13 100.06C210.13 104.16 212.9 116.71 205.9 117.48C198.9 118.25 183 102 174.77 110.07C166.54 118.14 146.37 111.76 156.04 97.44C165.71 83.12 194.43 95.35 202.82 79.95C211.08 64.79 231.56 79.12 223 87.54Z" fill="#24285B"/>
<path d="M106.37 129.04L74.53 140.62L75.87 170.54H103.37L106.37 129.04Z" fill="#24285B"/>
<path d="M30.87 94.06C30.87 94.06 14.54 90.3 20.87 86.8C27.2 83.3 29.87 87.97 35.54 86.8C41.21 85.63 42.87 87.62 40.87 92.29L30.87 94.06Z" fill="#F4A28C"/>
<path d="M262.642 141.664L255.03 137.683L244.288 158.223L251.899 162.204L262.642 141.664Z" fill="#3CE3B1"/>
<path d="M192.07 105.89C187.985 104.876 183.683 105.197 179.793 106.803C175.903 108.41 172.629 111.219 170.45 114.82C161.45 129.38 146.39 157.49 156.83 167.95C169.44 180.57 236.73 171.79 253.04 169.45C256.07 169.045 258.833 167.504 260.77 165.14C263.01 162.37 264.51 158.45 260.23 154.65C252.43 147.71 247.78 160.24 247.78 160.24L190.42 156.7C189.687 156.657 188.978 156.421 188.364 156.017C187.751 155.612 187.255 155.054 186.927 154.397C186.598 153.74 186.449 153.008 186.493 152.274C186.538 151.541 186.775 150.833 187.18 150.22C195.24 137.94 210.59 110.76 192.07 105.89Z" fill="#F4A28C"/>
<path d="M156.6 137.2L191.5 145.59C191.5 145.59 214.6 116.21 193.85 105.22C173.1 94.23 156.6 137.2 156.6 137.2Z" fill="#FF6700"/>
<path opacity="0.92" d="M156.6 137.2L191.5 145.59C191.5 145.59 214.6 116.21 193.85 105.22C173.1 94.23 156.6 137.2 156.6 137.2Z" fill="#9F91FC"/>
<path opacity="0.45" d="M263 129.81C263 129.81 336.23 63.12 285.23 27.62C234.23 -7.87999 207.4 61.38 235.9 67.88C264.4 74.38 276.4 -0.0399887 196.9 2.46001C117.4 4.96001 162.58 70.52 74.58 35.52" stroke="#C9C9C9" stroke-width="3" stroke-linecap="round" stroke-linejoin="round" stroke-dasharray="2 12"/>
<path d="M66.31 23.68L79.78 15.82L25.38 9.76001L50.26 46.56L59.12 27.62L66.31 23.68Z" fill="#F98C3E"/>
<path d="M66.31 23.68L62.54 37.42L59.12 27.62L25.38 9.76001L66.31 23.68Z" fill="#FFD200"/>
<path opacity="0.46" d="M66.31 23.68L62.54 37.42L59.12 27.62L25.38 9.76001L66.31 23.68Z" fill="#FBAE78"/>
<path d="M62.54 37.42L56.53 33.15L59.12 27.62L62.54 37.42Z" fill="#24285B"/>
</svg>
