<svg width="449" height="328" viewBox="0 0 449 328" fill="none" xmlns="http://www.w3.org/2000/svg">
<path d="M65.519 260.97H1.491V294.181H65.519V260.97Z" fill="#F0EDFF"/>
<path d="M190.981 25.549H1.491V193.653H190.981V25.549Z" fill="#F0EDFF"/>
<path d="M190.981 167.538H1.491V193.653H190.981V167.538Z" fill="#E8E5FF"/>
<path d="M17.363 187.655C21.7144 187.655 25.242 184.127 25.242 179.776C25.242 175.425 21.7144 171.897 17.363 171.897C13.0115 171.897 9.48399 175.425 9.48399 179.776C9.48399 184.127 13.0115 187.655 17.363 187.655Z" fill="#F93888"/>
<path d="M36.354 187.655C40.7055 187.655 44.233 184.127 44.233 179.776C44.233 175.425 40.7055 171.897 36.354 171.897C32.0026 171.897 28.475 175.425 28.475 179.776C28.475 184.127 32.0026 187.655 36.354 187.655Z" fill="#FFB200"/>
<path d="M40.016 181.771C39.6854 181.418 39.3006 181.12 38.876 180.888C38.778 180.832 38.6962 180.751 38.6387 180.653C38.5813 180.556 38.55 180.445 38.548 180.332L38.42 179.221C37.4156 178.843 36.3152 178.803 35.286 179.107L35.101 180.19C35.0949 180.307 35.0573 180.421 34.9922 180.519C34.9271 180.617 34.8369 180.695 34.731 180.746C34.2877 180.946 33.8819 181.221 33.531 181.558C33.4726 181.618 33.4026 181.666 33.3253 181.699C33.248 181.732 33.1649 181.748 33.081 181.748C32.9971 181.748 32.914 181.732 32.8367 181.699C32.7594 181.666 32.6894 181.618 32.631 181.558L31.631 180.489C31.5125 180.367 31.4462 180.203 31.4462 180.033C31.4462 179.863 31.5125 179.699 31.631 179.577C33.0521 178.257 34.9381 177.554 36.8765 177.62C38.8149 177.687 40.648 178.519 41.975 179.933C42.0352 179.991 42.0831 180.061 42.1158 180.139C42.1485 180.216 42.1654 180.299 42.1654 180.383C42.1654 180.467 42.1485 180.55 42.1158 180.627C42.0831 180.705 42.0352 180.775 41.975 180.833L40.906 181.833C40.8438 181.89 40.7709 181.933 40.6915 181.961C40.6121 181.989 40.5279 182.001 40.4439 181.995C40.3599 181.99 40.2779 181.968 40.2026 181.93C40.1274 181.893 40.0605 181.84 40.006 181.776L40.016 181.771Z" fill="white"/>
<path d="M55.36 187.655C59.7114 187.655 63.239 184.127 63.239 179.776C63.239 175.425 59.7114 171.897 55.36 171.897C51.0085 171.897 47.481 175.425 47.481 179.776C47.481 184.127 51.0085 187.655 55.36 187.655Z" fill="#3CE3B1"/>
<path d="M19.143 176.969H12.461V182.582H19.143V176.969Z" fill="white"/>
<path d="M22.249 182.027L20.026 181.286V178.467L22.249 177.726V182.027Z" fill="white"/>
<path d="M55.735 174.334H54.97C53.9185 174.334 53.066 175.186 53.066 176.238V180.466C53.066 181.518 53.9185 182.37 54.97 182.37H55.735C56.7866 182.37 57.639 181.518 57.639 180.466V176.238C57.639 175.186 56.7866 174.334 55.735 174.334Z" fill="white"/>
<path d="M55.845 181.614H54.876V184.321H55.845V181.614Z" fill="white"/>
<path d="M57.369 184.064H53.351V185.204H57.369V184.064Z" fill="white"/>
<path d="M448.131 25.549H225.872V262.625H448.131V25.549Z" fill="#F0EDFF"/>
<path d="M448.131 231.978H225.872V262.61H448.131V231.978Z" fill="#E8E5FF"/>
<path d="M244.479 255.571C249.578 255.571 253.711 251.438 253.711 246.339C253.711 241.24 249.578 237.107 244.479 237.107C239.38 237.107 235.247 241.24 235.247 246.339C235.247 251.438 239.38 255.571 244.479 255.571Z" fill="#F93888"/>
<path d="M266.776 255.571C271.875 255.571 276.008 251.438 276.008 246.339C276.008 241.24 271.875 237.107 266.776 237.107C261.677 237.107 257.544 241.24 257.544 246.339C257.544 251.438 261.677 255.571 266.776 255.571Z" fill="#FFB200"/>
<path d="M271.065 248.676C270.678 248.259 270.226 247.907 269.726 247.636C269.611 247.573 269.514 247.48 269.447 247.368C269.379 247.255 269.343 247.126 269.341 246.995L269.199 245.684C268.014 245.242 266.717 245.197 265.504 245.555L265.29 246.823C265.282 246.96 265.239 247.093 265.164 247.208C265.089 247.322 264.985 247.416 264.863 247.478C264.341 247.714 263.86 248.031 263.438 248.418C263.369 248.488 263.287 248.543 263.197 248.581C263.106 248.619 263.009 248.638 262.911 248.638C262.813 248.638 262.716 248.619 262.625 248.581C262.535 248.543 262.453 248.488 262.384 248.418L261.216 247.164C261.146 247.094 261.09 247.011 261.052 246.919C261.014 246.827 260.994 246.729 260.994 246.63C260.994 246.53 261.014 246.432 261.052 246.34C261.09 246.248 261.146 246.165 261.216 246.095C262.038 245.32 263.005 244.716 264.061 244.317C265.118 243.918 266.243 243.732 267.372 243.771C268.5 243.809 269.61 244.071 270.637 244.54C271.664 245.01 272.588 245.679 273.355 246.508C273.426 246.576 273.483 246.658 273.522 246.748C273.561 246.839 273.581 246.936 273.581 247.035C273.581 247.134 273.561 247.231 273.522 247.322C273.483 247.412 273.426 247.494 273.355 247.562L272.115 248.73C272.042 248.796 271.957 248.847 271.865 248.88C271.772 248.913 271.674 248.927 271.576 248.922C271.478 248.917 271.382 248.892 271.294 248.849C271.205 248.807 271.126 248.747 271.061 248.673L271.065 248.676Z" fill="white"/>
<path d="M289.059 255.571C294.158 255.571 298.291 251.438 298.291 246.339C298.291 241.24 294.158 237.107 289.059 237.107C283.96 237.107 279.827 241.24 279.827 246.339C279.827 251.438 283.96 255.571 289.059 255.571Z" fill="#3CE3B1"/>
<path d="M246.588 243.048H238.752V249.63H246.588V243.048Z" fill="white"/>
<path d="M250.221 248.975L247.628 248.106V244.801L250.221 243.932V248.975Z" fill="white"/>
<path d="M289.787 239.957H288.332C287.254 239.957 286.381 240.831 286.381 241.908V247.438C286.381 248.516 287.254 249.389 288.332 249.389H289.787C290.864 249.389 291.738 248.516 291.738 247.438V241.908C291.738 240.831 290.864 239.957 289.787 239.957Z" fill="white"/>
<path d="M289.629 248.491H288.489V251.668H289.629V248.491Z" fill="white"/>
<path d="M291.41 251.369H286.694V252.708H291.41V251.369Z" fill="white"/>
<path d="M206.011 231.123H75.406V327.335H206.011V231.123Z" fill="#F0EDFF"/>
<path d="M206.011 213.115H75.406V231.124H206.011V213.115Z" fill="#E8E5FF"/>
<path d="M86.348 227.547C89.3458 227.547 91.776 225.117 91.776 222.119C91.776 219.121 89.3458 216.691 86.348 216.691C83.3502 216.691 80.92 219.121 80.92 222.119C80.92 225.117 83.3502 227.547 86.348 227.547Z" fill="#F93888"/>
<path d="M99.441 227.547C102.439 227.547 104.869 225.117 104.869 222.119C104.869 219.121 102.439 216.691 99.441 216.691C96.4432 216.691 94.013 219.121 94.013 222.119C94.013 225.117 96.4432 227.547 99.441 227.547Z" fill="#FFB200"/>
<path d="M101.963 223.501C101.739 223.253 101.473 223.046 101.179 222.888C101.109 222.851 101.051 222.796 101.011 222.728C100.97 222.66 100.95 222.582 100.951 222.503L100.866 221.734C100.171 221.476 99.4106 221.451 98.7 221.663L98.572 222.404C98.5726 222.486 98.5485 222.567 98.5029 222.636C98.4573 222.704 98.3922 222.758 98.316 222.789C98.018 222.931 97.744 223.118 97.504 223.345C97.4629 223.386 97.4141 223.419 97.3603 223.442C97.3065 223.464 97.2488 223.475 97.1905 223.475C97.1322 223.475 97.0745 223.464 97.0207 223.442C96.9669 223.419 96.9181 223.386 96.877 223.345L96.193 222.604C96.152 222.564 96.1193 222.517 96.0971 222.464C96.0748 222.411 96.0633 222.355 96.0633 222.298C96.0633 222.24 96.0748 222.184 96.0971 222.131C96.1193 222.078 96.152 222.031 96.193 221.991C97.1684 221.078 98.4665 220.588 99.8022 220.631C101.138 220.674 102.402 221.245 103.317 222.219C103.358 222.26 103.391 222.309 103.414 222.363C103.436 222.417 103.447 222.474 103.447 222.533C103.447 222.591 103.436 222.649 103.414 222.702C103.391 222.756 103.358 222.805 103.317 222.846L102.59 223.53C102.547 223.57 102.497 223.6 102.442 223.62C102.387 223.64 102.329 223.649 102.271 223.647C102.212 223.644 102.155 223.63 102.102 223.605C102.05 223.58 102.002 223.544 101.963 223.501Z" fill="white"/>
<path d="M112.534 227.547C115.532 227.547 117.962 225.117 117.962 222.119C117.962 219.121 115.532 216.691 112.534 216.691C109.536 216.691 107.106 219.121 107.106 222.119C107.106 225.117 109.536 227.547 112.534 227.547Z" fill="#3CE3B1"/>
<path d="M87.573 220.182H82.971V224.057H87.573V220.182Z" fill="white"/>
<path d="M89.725 223.672L88.186 223.172V221.22L89.725 220.707V223.672Z" fill="white"/>
<path d="M112.795 218.372H112.288C111.558 218.372 110.967 218.963 110.967 219.693V222.593C110.967 223.323 111.558 223.914 112.288 223.914H112.795C113.525 223.914 114.116 223.323 114.116 222.593V219.693C114.116 218.963 113.525 218.372 112.795 218.372Z" fill="white"/>
<path d="M112.877 223.387H112.207V225.253H112.877V223.387Z" fill="white"/>
<path d="M113.917 225.083H111.153V225.867H113.917V225.083Z" fill="white"/>
<path d="M272.546 281.744H225.872V327.093H272.546V281.744Z" fill="#F0EDFF"/>
<path d="M448.117 286.731H291.41V293.855H448.117V286.731Z" fill="#F0EDFF"/>
<path d="M448.117 300.864H291.41V307.988H448.117V300.864Z" fill="#F0EDFF"/>
<path d="M419.636 314.998H291.41V322.122H419.636V314.998Z" fill="#F0EDFF"/>
<path opacity="0.58" d="M25.412 299.609C25.412 299.609 4.882 294.009 0.464996 274.933C0.464996 274.933 32.222 268.507 33.12 301.291L25.412 299.609Z" fill="#8326EA"/>
<path opacity="0.73" d="M27.934 297.573C27.934 297.573 13.601 274.934 26.252 253.763C26.252 253.763 50.472 269.093 39.673 297.616L27.934 297.573Z" fill="#8326EA"/>
<path d="M31.624 297.587C31.624 297.587 39.189 273.68 62.056 269.092C62.056 269.092 66.33 284.622 47.256 297.587H31.624Z" fill="#8326EA"/>
<path d="M16.75 297.046L20.91 325.469L47.082 325.583L50.929 297.188L16.75 297.046Z" fill="#F93888"/>
<path d="M130.715 71.311C130.715 71.311 166.974 78.164 188.815 70.428C210.656 62.692 196.152 34.51 174.283 19.665L183.843 11.715C183.843 11.715 242.471 50.325 210.671 93.68C178.871 137.035 100.966 128.998 130.715 71.311Z" fill="#68E1FD"/>
<path d="M130.715 71.311C130.715 71.311 166.974 78.164 188.815 70.428C210.656 62.692 196.152 34.51 174.283 19.665L183.843 11.715C183.843 11.715 242.471 50.325 210.671 93.68C178.871 137.035 100.966 128.998 130.715 71.311Z" fill="#9F91FC"/>
<path d="M51.442 167.539H146.899C155.561 147.251 184.299 69.375 115.355 69.588C109.734 69.6604 104.125 70.1366 98.572 71.013C96.25 71.355 93.842 71.768 91.334 72.253C91.334 72.253 25.934 71.199 32.065 106.062C36.71 132.318 46.783 157.009 51.442 167.539Z" fill="#4D34FA"/>
<path opacity="0.08" d="M107.462 90.26C96.534 95.731 94.725 84.803 94.725 84.803C92.816 82.039 95.295 75.955 98.515 70.955C104.068 70.0786 109.677 69.6024 115.298 69.53C115.569 76.355 114.586 86.699 107.462 90.26Z" fill="black"/>
<path d="M92.502 72.451C92.974 73.9801 93.3547 75.5358 93.642 77.11C94.012 79.261 95.166 82.396 98.686 82.552C104.114 82.78 104.386 74.232 104.386 74.232C104.386 74.232 106.609 65.926 100.724 65.684C95.395 65.413 90.446 65.399 92.502 72.451Z" fill="#F4A28C"/>
<path d="M104.058 74.617C104.058 74.617 104.058 72.024 106.224 71.768C108.39 71.512 108.247 76.483 104.058 74.617Z" fill="#F4A28C"/>
<path d="M94.113 74.574C94.113 74.574 94.54 72.024 92.375 71.497C90.21 70.97 89.682 75.799 94.113 74.574Z" fill="#F4A28C"/>
<path opacity="0.08" d="M58.451 167.538H129.204C129.204 167.538 56.543 155.438 66.786 135.909C77.029 116.38 66.786 94.663 66.786 94.663L33.604 116.363L38.89 151.981L58.451 167.538Z" fill="black"/>
<path d="M92.503 72.451C92.503 72.451 83.769 72.451 86.719 65.584C89.669 58.717 91.164 63.347 92.29 58.218C93.416 53.089 94.911 51.906 97.861 53.63C100.811 55.354 98.844 60.056 102.677 58.275C106.51 56.494 109.088 54.955 110.328 58.161C111.568 61.367 111.028 63.076 108.59 64.572C106.152 66.068 110.855 69.986 104.629 72.721C98.403 75.456 94.015 68.831 94.015 68.831L92.503 72.451Z" fill="#24285B"/>
<path d="M26.082 167.538H98.131L97.148 163.406C97.148 163.406 34.948 155.371 42.139 135.806C48.123 119.493 76.561 110.887 65.139 91.169C63.895 89.086 62.2516 87.2695 60.3031 85.8239C58.3547 84.3783 56.1397 83.3321 53.7855 82.7455C51.4313 82.1589 48.9844 82.0435 46.5855 82.4059C44.1865 82.7682 41.8829 83.6013 39.807 84.857C22.838 94.957 -3.53301 115.745 3.61899 144.525C6.49199 156.097 15.126 163.249 26.082 167.538Z" fill="#68E1FD"/>
<path d="M26.082 167.538H98.131L97.148 163.406C97.148 163.406 34.948 155.371 42.139 135.806C48.123 119.493 76.561 110.887 65.139 91.169C63.895 89.086 62.2516 87.2695 60.3031 85.8239C58.3547 84.3783 56.1397 83.3321 53.7855 82.7455C51.4313 82.1589 48.9844 82.0435 46.5855 82.4059C44.1865 82.7682 41.8829 83.6013 39.807 84.857C22.838 94.957 -3.53301 115.745 3.61899 144.525C6.49199 156.097 15.126 163.249 26.082 167.538Z" fill="#9F91FC"/>
<path d="M176.704 17.67C175.692 18.496 173.342 14.635 173.104 14.08C171.964 11.4852 171.035 8.80285 170.326 6.05903C171.648 6.57939 172.736 7.56143 173.389 8.82303C173.589 6.55803 172.563 4.19303 173.304 2.04103C173.411 1.58977 173.671 1.18955 174.04 0.908822C174.409 0.628091 174.864 0.484297 175.327 0.502034C177.792 0.431034 179.715 2.63903 180.784 4.86203C181.725 6.57444 182.567 8.33933 183.306 10.148C183.876 11.815 183.006 12.399 181.767 13.453C180.124 14.877 178.386 16.259 176.704 17.67Z" fill="#F4A28C"/>
<path d="M111.48 167.537C111.609 167.445 111.718 167.328 111.801 167.193C111.884 167.059 111.94 166.909 111.965 166.753C111.99 166.597 111.985 166.437 111.948 166.283C111.911 166.129 111.844 165.984 111.751 165.856C109.4 162.337 97.151 163.405 97.151 163.405L98.134 167.537H111.48Z" fill="#F4A28C"/>
<path d="M65.519 213.115H1.491V246.326H65.519V213.115Z" fill="#F0EDFF"/>
<path d="M181.249 262.226C181.249 262.226 199.414 271.558 205.64 267.284C211.866 263.01 213.647 239.43 213.647 239.43L222.195 241.311C222.195 241.311 225.472 288.199 211.054 293.057C196.636 297.915 171.418 285.477 171.418 285.477L181.249 262.226Z" fill="#F4A28C"/>
<path d="M131.683 262.226C137.667 274.126 150.789 290.08 178.628 293.015L184.583 263.096C184.583 263.096 163.409 249.716 141.015 248.06C139.296 247.948 137.578 248.294 136.035 249.061C134.493 249.828 133.181 250.99 132.233 252.429C131.285 253.867 130.735 255.531 130.638 257.251C130.542 258.971 130.902 260.686 131.683 262.222V262.226Z" fill="#68E1FD"/>
<path d="M131.683 262.226C137.667 274.126 150.789 290.08 178.628 293.015L184.583 263.096C184.583 263.096 163.409 249.716 141.015 248.06C139.296 247.948 137.578 248.294 136.035 249.061C134.493 249.828 133.181 250.99 132.233 252.429C131.285 253.867 130.735 255.531 130.638 257.251C130.542 258.971 130.902 260.686 131.683 262.222V262.226Z" fill="#9F91FC"/>
<path d="M214.061 239.429C213.648 239.329 213.22 230.268 214.317 231.109C215.03 231.791 215.525 232.668 215.742 233.631C215.742 233.631 215.742 227.22 219.047 227.931C222.352 228.642 223.478 236.023 222.167 241.21L214.06 239.71" fill="#F4A28C"/>
<path d="M136.513 220.908C136.969 224.255 136.969 227.648 136.513 230.995C136.435 231.388 136.28 231.762 136.057 232.095C135.834 232.428 135.548 232.714 135.214 232.936C134.881 233.159 134.507 233.313 134.114 233.391C133.721 233.468 133.316 233.468 132.923 233.389C131.639 233.206 130.436 232.657 129.456 231.808C128.476 230.959 127.761 229.845 127.397 228.601L125.303 223.415C124.994 222.331 125.028 221.178 125.4 220.114C125.773 219.051 126.465 218.128 127.383 217.474C130.714 214.781 136.185 217.175 136.513 220.908Z" fill="#F4A28C"/>
<path d="M125.713 224.313L123.647 244.088L134.632 244.444L131.726 229.912L125.713 224.313Z" fill="#F4A28C"/>
<path d="M135.031 221.204C133.161 221.367 131.278 221.319 129.418 221.062C130.004 221.858 130.345 222.808 130.398 223.795C130.451 224.782 130.215 225.763 129.718 226.618C129.25 227.452 128.507 228.098 127.615 228.444C126.723 228.79 125.739 228.814 124.831 228.513L124.518 220.734C124.426 219.614 124.643 218.491 125.145 217.486C125.648 216.481 126.416 215.633 127.367 215.034C128.175 214.503 129.017 214.027 129.889 213.609C132.083 212.583 135.445 213.909 137.383 212.284C137.574 212.111 137.808 211.993 138.06 211.943C138.313 211.893 138.574 211.912 138.817 211.998C139.059 212.084 139.274 212.234 139.438 212.433C139.602 212.631 139.709 212.871 139.748 213.125C140.218 215.476 140.004 219.225 136.899 220.69C136.307 220.957 135.677 221.131 135.031 221.204Z" fill="#24285B"/>
<path d="M130.36 226.394C130.36 226.394 130.189 224.072 128.437 224.342C126.685 224.612 126.927 227.989 129.32 228.175L130.36 226.394Z" fill="#F4A28C"/>
<path d="M136.855 224.684L138.664 226.921C138.767 227.05 138.836 227.202 138.864 227.364C138.893 227.526 138.88 227.692 138.828 227.848C138.776 228.004 138.685 228.145 138.564 228.256C138.443 228.368 138.297 228.448 138.137 228.488L135.843 229.044L136.855 224.684Z" fill="#F4A28C"/>
<path opacity="0.31" d="M132.495 233.061C131.113 232.791 129.84 232.123 128.833 231.138C129.405 233.96 131.024 236.461 133.364 238.138L132.495 233.061Z" fill="#CE8172"/>
<path d="M161.446 327.336C165.165 319.4 173.129 299.197 171.12 275.136C168.527 244.006 134.333 244.148 134.333 244.148L129.46 243.991C123.085 243.73 116.79 245.491 111.475 249.022C106.16 252.553 102.098 257.674 99.868 263.652C92.103 285.165 104.968 315.327 110.91 327.395L161.446 327.336Z" fill="#4D34FA"/>
<path opacity="0.08" d="M110.782 327.335H128.306C126.995 323.574 125.984 316.977 127.18 305.679C129.588 283.279 123.034 260.159 123.034 260.159C98.058 261.071 105.634 314.171 107.048 318.901C108.061 321.809 109.309 324.63 110.781 327.335H110.782Z" fill="black"/>
<path d="M107.234 251.811C96.648 259.889 83.412 275.732 85.692 303.629L116.167 303.942C116.167 303.942 125.385 280.662 122.849 258.351C122.64 256.645 121.984 255.024 120.946 253.653C119.908 252.282 118.527 251.21 116.941 250.546C115.355 249.882 113.622 249.649 111.917 249.871C110.212 250.094 108.597 250.763 107.234 251.811Z" fill="#68E1FD"/>
<path d="M107.234 251.811C96.648 259.889 83.412 275.732 85.692 303.629L116.167 303.942C116.167 303.942 125.385 280.662 122.849 258.351C122.64 256.645 121.984 255.024 120.946 253.653C119.908 252.282 118.527 251.21 116.941 250.546C115.355 249.882 113.622 249.649 111.917 249.871C110.212 250.094 108.597 250.763 107.234 251.811Z" fill="#9F91FC"/>
<path d="M105.782 327.336C106.542 319.281 108.492 311.383 111.566 303.899L88.566 303.657C88.5196 311.564 88.8904 319.468 89.677 327.336H105.782Z" fill="#F4A28C"/>
<path d="M346.26 22.998C346.26 22.998 355.66 15.034 363.072 20.59C370.484 26.146 365.437 48.6431 381.594 43.4711C381.594 43.4711 364.084 57.9891 351.831 34.281L346.26 22.998Z" fill="#24285B"/>
<path d="M353.771 38.414C353.771 38.414 360.171 37.514 357.518 28.797C354.865 20.08 347.645 20.391 345.579 22.685L353.771 38.414Z" fill="#3C4CA0"/>
<path d="M334.651 33.698C335.094 37.9166 336.1 42.0568 337.643 46.008C337.858 46.4643 338.162 46.8735 338.536 47.2123C338.909 47.551 339.347 47.8126 339.822 47.9821C340.297 48.1516 340.801 48.2255 341.305 48.1998C341.809 48.174 342.303 48.0491 342.758 47.832C344.263 47.2162 345.56 46.1841 346.499 44.8567C347.438 43.5294 347.979 41.9619 348.058 40.338L349.041 33.357C349.089 31.9411 348.697 30.5452 347.919 29.3613C347.141 28.1774 346.015 27.2637 344.696 26.746C339.894 24.522 333.995 29.096 334.651 33.698Z" fill="#F4A28C"/>
<path d="M350.608 37.246L355.566 61.737L341.874 63.507L343.712 45.441L350.608 37.246Z" fill="#F4A28C"/>
<path d="M335.42 38.442L333.896 41.733C333.81 41.9196 333.772 42.1247 333.786 42.3297C333.8 42.5346 333.866 42.7327 333.976 42.9058C334.087 43.0789 334.239 43.2214 334.419 43.3201C334.6 43.4189 334.802 43.4708 335.007 43.471H337.97L335.42 38.442Z" fill="#F4A28C"/>
<path opacity="0.31" d="M343.669 45.951C345.279 45.4417 346.721 44.5064 347.843 43.244C347.843 43.244 349.424 48.473 343.143 51.123L343.669 45.951Z" fill="#CE8172"/>
<path d="M350.095 37.36C350.095 37.36 349.595 34.511 351.805 34.283C354.015 34.055 354.754 38.258 351.89 39.213L350.095 37.36Z" fill="#F4A28C"/>
<path d="M336.161 33.043C338.613 33.1667 341.068 32.8825 343.427 32.202C343.427 32.202 345.935 40.437 352.844 41.79C352.844 41.79 357.744 28.511 349.425 24.522C342.472 21.188 337.215 18.111 332.414 23.582C331.714 24.3708 331.247 25.3382 331.064 26.3767C330.881 27.4152 330.99 28.4841 331.378 29.4645C331.766 30.4449 332.419 31.2984 333.263 31.93C334.108 32.5616 335.111 32.9475 336.161 33.043Z" fill="#24285B"/>
<path d="M324.663 137.12C324.663 137.12 324.221 189.835 288.563 193.312C252.905 196.789 232.223 127.004 232.013 126.349C231.486 124.549 228.579 122.901 227.539 121.22C226.083 118.841 225.318 116.103 225.331 113.313C225.319 113.012 225.383 112.714 225.516 112.444C225.667 112.246 225.875 112.101 226.113 112.027C226.35 111.953 226.605 111.954 226.841 112.031C227.317 112.189 227.754 112.447 228.123 112.786C227.638 111.165 227.411 109.478 227.453 107.786C227.553 104.21 230.302 100.221 233.408 104.067C234.803 106.08 235.871 108.302 236.571 110.649C237.497 113.157 238.281 115.735 239.007 118.314C239.187 119.523 239.502 120.708 239.947 121.847C239.947 121.847 260.647 158.22 277.902 161.041C295.157 163.862 280.908 107.058 319.746 79.318C358.584 51.578 324.663 137.12 324.663 137.12Z" fill="#F4A28C"/>
<path d="M343.797 36.633C343.797 36.633 343.797 33.228 346.504 33.456C349.211 33.684 349.653 37.616 346.504 39.556L343.797 36.633Z" fill="#F4A28C"/>
<path d="M355.566 61.737L341.874 63.504C341.874 63.504 267.788 99.122 310.188 149.173C313.773 153.343 316.066 158.467 316.788 163.919L320.635 194.679H376.299C376.299 194.679 456.693 79.703 355.566 61.737Z" fill="#8326EA"/>
<path opacity="0.08" d="M355.167 90.217C355.167 90.217 339.595 113.811 360.937 136.15C382.279 158.489 369.899 177.966 345.578 162.664C321.257 147.362 317.326 167.309 317.326 167.309L318.751 179.832L356.606 179.405L398.55 179.562L413.31 144.571L355.167 90.217Z" fill="black"/>
<path d="M400.388 231.979L388.604 179.833H318.78L310.132 231.978L400.388 231.979Z" fill="#24285B"/>
<path d="M355.167 90.217C354.297 73.779 373.389 64.002 386.729 73.647C404.729 86.679 430.278 108.853 423.312 166.455C414.849 236.267 327.271 163.905 327.271 163.905L330.89 154.687C330.89 154.687 379.032 184.777 391.954 165.914C395.929 160.101 390.529 151.314 386.383 144.344C378.974 131.748 356.221 110.279 355.167 90.217Z" fill="#F4A28C"/>
<path d="M330.548 154.729C330.148 151.694 324.848 147.263 322.683 145.468C322.049 144.872 321.297 144.416 320.475 144.129C320.06 143.994 319.616 143.976 319.191 144.076C318.766 144.177 318.377 144.392 318.067 144.699C317.802 145.118 317.629 145.589 317.56 146.08C317.491 146.572 317.527 147.072 317.667 147.548C318.223 150.996 318.907 155.598 320.759 158.618C321.229 159.387 326.686 163.932 327.27 162.618C328.281 160.395 330.02 157.845 330.518 155.494C330.569 155.241 330.578 154.981 330.546 154.725L330.548 154.729Z" fill="#F4A28C"/>
<path d="M360.937 62.763C360.937 62.763 362.832 56.85 351.904 55.639C340.976 54.428 332.257 59.044 335.847 66.78C335.847 66.808 344.082 73.363 360.937 62.763Z" fill="#68E1FD"/>
<path opacity="0.46" d="M360.937 62.763C360.937 62.763 362.832 56.85 351.904 55.639C340.976 54.428 332.257 59.044 335.847 66.78C335.847 66.808 344.082 73.363 360.937 62.763Z" fill="#8326EA"/>
<path d="M323.055 164.071L328.69 168.632L337.365 157.916L331.73 153.355L323.055 164.071Z" fill="#24285B"/>
</svg>
