<svg width="204" height="215" viewBox="0 0 204 215" fill="none" xmlns="http://www.w3.org/2000/svg">
<path d="M197.928 104.79C201.27 122.924 208.043 159.676 191.835 184.262C162.421 228.883 62.3855 225.739 20.1311 169.481C16.478 164.617 -1.84747 139.246 0.151974 104.505C3.62022 44.2456 66.2215 -9.16528 116.392 1.32503C145.754 7.46448 165.27 34.3228 173.304 45.3802C176.615 49.937 191.779 71.4201 197.928 104.79Z" fill="#F0EDFF"/>
<path opacity="0.74" d="M70.1387 176.603C79.7315 170.006 92.8005 158.834 100.822 141.127C111.341 117.903 103.936 103.843 111.883 62.7224C116.909 36.7224 120.666 18.6306 134.862 11.1807C145.988 5.34271 162.192 6.73902 170.693 15.5882C177.762 22.9462 180.333 36.3181 180.266 45.5153C180.211 53.0109 178.4 58.1297 181.769 62.6994C185.213 67.3694 190.005 65.9575 193.352 69.5619C200.139 76.8716 192.391 95.5603 191.139 98.5808C177.21 132.18 142.414 150.198 127.146 157.866C114.522 164.207 95.2921 172.216 70.1387 176.603Z" fill="url(#paint0_linear_25_889)"/>
<mask id="mask0_25_889" style="mask-type:luminance" maskUnits="userSpaceOnUse" x="70" y="7" width="127" height="170">
<path d="M70.1387 176.603C79.7315 170.006 92.8005 158.834 100.822 141.127C111.341 117.903 103.936 103.843 111.883 62.7224C116.909 36.7224 120.666 18.6306 134.862 11.1807C145.988 5.34271 162.192 6.73902 170.693 15.5882C177.762 22.9462 180.333 36.3181 180.266 45.5153C180.211 53.0109 178.4 58.1297 181.769 62.6994C185.213 67.3694 190.005 65.9575 193.352 69.5619C200.139 76.8716 192.391 95.5603 191.139 98.5808C177.21 132.18 142.414 150.198 127.146 157.866C114.522 164.207 95.2921 172.216 70.1387 176.603Z" fill="white"/>
</mask>
<g mask="url(#mask0_25_889)">
<g opacity="0.5">
<path d="M59.6204 181.261L59.5258 180.748C74.7988 177.664 88.255 173.119 99.521 167.237C116.142 158.559 127.484 147.191 133.232 133.446C137.732 122.683 138.74 110.874 140.134 94.5307C141.247 81.4851 140.912 72.1353 140.617 63.886C140.231 53.1188 139.927 44.6143 143.07 32.9361C146.26 21.083 152.057 9.77956 160.3 -0.660187L160.684 -0.327321C152.485 10.0559 146.72 21.295 143.55 33.0778C140.428 44.6768 140.731 53.1451 141.115 63.8665C141.411 72.1311 141.746 81.4986 140.63 94.5771C139.285 110.353 138.222 122.814 133.688 133.656C127.893 147.515 116.472 158.971 99.7434 167.704C88.4369 173.607 74.9376 178.168 59.6204 181.261Z" fill="white"/>
<path d="M141.088 85.2252L140.853 85.0626C140.778 85.0106 133.259 79.7403 126.576 69.4694C122.65 63.4372 119.772 56.8831 118.023 49.9895C115.837 41.3735 115.417 32.2013 116.775 22.7275L117.268 22.805C115.921 32.2026 116.336 41.2991 118.502 49.8417C120.234 56.6762 123.085 63.1747 126.976 69.157C132.947 78.3384 139.583 83.4892 140.896 84.4587C151.466 62.3803 165.827 49.96 176.032 43.4214C187.141 36.3036 195.872 34.4241 195.959 34.406L196.056 34.9182C195.97 34.9363 187.309 36.8038 176.272 43.8801C166.087 50.4095 151.738 62.8368 141.214 84.9611L141.088 85.2252Z" fill="white"/>
<path d="M137.234 120.405L137.159 120.232C137.099 120.094 131.075 106.293 122.449 93.6956C113.855 81.1442 90.2145 73.0132 89.9767 72.9325L90.1304 72.4357C90.3697 72.5168 114.166 80.7018 122.854 93.391C130.984 105.264 136.809 118.2 137.537 119.843C151.505 118.061 168.329 101.517 180.005 87.9195C192.73 73.0996 202.249 58.4884 202.343 58.3427L202.756 58.6362C202.661 58.7824 193.123 73.423 180.376 88.2688C172.885 96.9923 165.767 104.081 159.22 109.337C151.014 115.924 143.678 119.641 137.414 120.384L137.234 120.405Z" fill="white"/>
<path d="M108.54 165.371C106.29 165.371 105.023 165.303 104.983 165.301L104.487 165.273L104.805 164.873C109.476 159.005 111.929 152.427 112.094 145.322C112.227 139.629 110.902 133.581 108.155 127.348C103.468 116.71 96.1683 109.125 96.095 109.05L96.4447 108.677C96.5184 108.753 103.875 116.395 108.602 127.116C111.384 133.424 112.726 139.551 112.593 145.327C112.43 152.392 110.046 158.941 105.508 164.801C107.982 164.89 119.418 165.12 134.342 162.551C149.856 159.881 172.422 153.554 191.817 138.576L229.449 109.515L229.745 109.936L192.113 138.997C172.634 154.039 149.982 160.39 134.41 163.069C122.871 165.054 113.408 165.371 108.54 165.371Z" fill="white"/>
</g>
</g>
<path d="M105.965 195.863C120.673 199.022 139.786 200.543 159.173 194.558C164.12 193.031 194.683 183.595 193.571 167.51C193.179 161.844 189.188 160.138 188.553 152.574C187.8 143.611 192.922 140.269 197.591 130.256C200.376 124.281 208.528 106.795 200.673 94.5603C195.98 87.2492 185.783 82.1438 177.373 82.7253C165.037 83.5781 158.963 96.4985 149.002 118.572C140.172 138.139 140.926 143.545 134.362 157.503C129.49 167.862 121.127 181.783 105.965 195.863Z" fill="url(#paint1_linear_25_889)"/>
<mask id="mask1_25_889" style="mask-type:luminance" maskUnits="userSpaceOnUse" x="105" y="82" width="99" height="117">
<path d="M105.965 195.863C120.673 199.022 139.786 200.543 159.173 194.558C164.12 193.031 194.683 183.595 193.571 167.51C193.179 161.844 189.188 160.138 188.553 152.574C187.8 143.611 192.922 140.269 197.591 130.256C200.376 124.281 208.528 106.795 200.673 94.5603C195.98 87.2492 185.783 82.1438 177.373 82.7253C165.037 83.5781 158.963 96.4985 149.002 118.572C140.172 138.139 140.926 143.545 134.362 157.503C129.49 167.862 121.127 181.783 105.965 195.863Z" fill="white"/>
</mask>
<g mask="url(#mask1_25_889)">
<g opacity="0.5">
<path d="M83.0687 199.254C69.4215 199.254 55.6741 195.497 42.1204 188.053L42.3519 187.59C57.7343 196.039 73.3615 199.713 88.8023 198.509C109.373 196.904 128.55 186.335 145.799 167.092C163.766 147.051 175.141 122.624 181.519 105.662C185.941 93.9035 187.41 80.1791 185.886 64.8694L186.382 64.8153C187.915 80.209 186.435 94.0162 181.983 105.853C175.589 122.858 164.183 147.348 146.163 167.45C128.825 186.79 109.538 197.415 88.8394 199.03C86.9185 199.179 84.9945 199.254 83.0687 199.254Z" fill="white"/>
<path d="M166.371 138.775L166.262 138.541C166.229 138.472 162.995 131.494 161.021 121.449C159.198 112.172 158.105 98.3006 163.249 84.9005L163.711 85.0953C158.616 98.3696 159.7 112.126 161.507 121.329C163.265 130.285 166.03 136.783 166.603 138.076C201.419 120.282 205.133 92.4531 205.442 84.3332C205.451 84.1014 205.455 84.0051 205.464 83.949L205.956 84.0315C205.952 84.0637 205.946 84.2048 205.941 84.354C205.628 92.5646 201.867 120.746 166.594 138.661L166.371 138.775Z" fill="white"/>
<path d="M169.275 171.958C162.051 171.958 154.29 170.351 146.193 167.18L146.07 167.131L146.038 166.997C145.984 166.766 140.707 143.522 146.798 114.648L152.947 85.5005L153.434 85.6132L147.285 114.761C141.459 142.38 146.071 164.805 146.493 166.739C156.787 170.752 171.979 174.212 186.144 168.072C194.634 164.392 198.767 158.934 198.808 158.88L199.201 159.201C199.159 159.257 194.944 164.823 186.334 168.555C181.283 170.744 175.726 171.888 169.817 171.954C169.637 171.957 169.456 171.958 169.275 171.958Z" fill="white"/>
</g>
</g>
<path d="M125.876 12.2745L26.9813 3.66693C24.6843 3.57242 22.818 5.46528 22.818 7.89506V202.966C22.818 205.395 24.6843 207.241 26.9813 207.087L126.898 200.42C128.954 200.283 130.616 198.315 130.616 196.024V12.081C130.616 9.78976 127.931 12.359 125.876 12.2745Z" fill="url(#paint2_linear_25_889)"/>
<path d="M103.112 7.35788C103.112 6.00223 104.143 4.91036 105.399 4.93535L106.256 4.88985L110.365 6.5552V8.07739L103.112 7.35788Z" fill="url(#paint3_linear_25_889)"/>
<path d="M129.565 7.77955L29.6476 3.66704C27.3506 3.57252 25.4844 5.46538 25.4844 7.89517V202.966C25.4844 205.396 27.3506 207.241 29.6476 207.088L129.565 200.421C131.62 200.283 133.283 198.315 133.283 196.024V12.0811C133.283 9.78986 131.62 7.8641 129.565 7.77955Z" fill="#D8DEE8"/>
<g opacity="0.3">
<path d="M88.699 151.139C87.0012 128.913 99.7307 119.721 94.8785 99.5942C88.8772 74.7011 65.7595 73.6058 57.8733 49.1435C54.85 39.7653 53.6552 25.5945 62.3083 5.01109L29.6477 3.6668C27.3507 3.57228 25.4844 5.46514 25.4844 7.89492V202.966C25.4844 205.395 27.3507 207.241 29.6477 207.087L118.792 201.139C96.1928 182.476 89.7423 164.798 88.699 151.139Z" fill="#D8DEE8"/>
</g>
<path d="M129.565 10.2287L29.6476 6.25325C28.7062 6.21581 27.9395 6.99503 27.9395 7.99033V202.808C27.9395 203.803 28.7062 204.563 29.6476 204.501L129.565 197.971C130.408 197.916 131.094 197.106 131.094 196.165V11.9959C131.094 11.055 130.408 10.2622 129.565 10.2287Z" fill="url(#paint4_linear_25_889)"/>
<path d="M80.966 96.2995C62.259 96.4528 46.756 79.9089 46.756 59.4178C46.756 38.9266 62.259 22.7455 80.966 23.3364C99.299 23.9155 113.946 40.4495 113.946 60.2038C113.946 79.9582 99.299 96.1493 80.966 96.2995Z" fill="#D8DEE8"/>
<path d="M111.709 60.1776C111.709 78.6219 98.0735 93.6669 80.966 93.7836C63.5333 93.9025 49.1562 78.5299 49.1562 59.4458C49.1562 40.3618 63.5333 25.3255 80.966 25.8523C98.0735 26.3692 111.709 41.7333 111.709 60.1776Z" fill="white"/>
<path opacity="0.74" d="M118.402 109.328L41.937 110.521C39.7998 110.555 38.0639 112.426 38.0639 114.702C38.0639 116.977 39.7998 118.787 41.937 118.744L118.402 117.214C120.364 117.175 121.951 115.381 121.951 113.208C121.951 111.034 120.364 109.297 118.402 109.328Z" fill="url(#paint5_linear_25_889)"/>
<path d="M118.402 124.855L55.7628 126.374C53.6571 126.425 51.9467 128.297 51.9467 130.556C51.9467 132.814 53.6571 134.596 55.7628 134.536L118.402 132.742C120.364 132.685 121.951 130.878 121.951 128.704C121.951 126.531 120.364 124.807 118.402 124.855Z" fill="#D8DEE8"/>
<path d="M41.9724 134.931L41.9016 134.933C39.784 134.993 38.0638 133.279 38.0638 131.104V130.742C38.0638 128.567 39.784 126.762 41.9016 126.71L41.9724 126.709C44.0851 126.657 45.7942 128.372 45.7942 130.539V130.898C45.7943 133.065 44.0851 134.87 41.9724 134.931Z" fill="#B19AF3"/>
<path d="M41.9369 135.703C39.4027 135.776 37.3358 133.641 37.3358 130.942C37.3358 128.244 39.4027 125.999 41.9369 125.938C44.4644 125.878 46.5156 128.014 46.5156 130.699C46.5156 133.385 44.4644 135.629 41.9369 135.703ZM41.9369 127.48C40.2037 127.523 38.7912 129.059 38.7912 130.904C38.7912 132.749 40.2037 134.21 41.9369 134.161C43.667 134.112 45.0721 132.576 45.0721 130.738C45.0721 128.899 43.6671 127.438 41.9369 127.48Z" fill="#D8DEE8"/>
<path d="M118.402 138.903L55.7628 140.912C53.6571 140.98 51.9467 142.865 51.9467 145.124C51.9467 147.382 53.6571 149.151 55.7628 149.074L118.402 146.79C120.364 146.718 121.951 144.898 121.951 142.725C121.951 140.551 120.364 138.84 118.402 138.903Z" fill="#D8DEE8"/>
<path d="M41.9724 149.577L41.9016 149.579C39.784 149.656 38.0638 147.956 38.0638 145.78V145.419C38.0638 143.243 39.784 141.425 41.9016 141.357L41.9724 141.354C44.0851 141.287 45.7942 142.988 45.7942 145.155V145.514C45.7943 147.681 44.0851 149.5 41.9724 149.577Z" fill="#B19AF3"/>
<path d="M41.9369 150.349C39.4027 150.442 37.3358 148.323 37.3358 145.624C37.3358 142.926 39.4027 140.665 41.9369 140.585C44.4644 140.505 46.5156 142.624 46.5156 145.31C46.5156 147.995 44.4644 150.256 41.9369 150.349ZM41.9369 142.126C40.2037 142.183 38.7912 143.73 38.7912 145.574C38.7912 147.419 40.2037 148.87 41.9369 148.807C43.667 148.745 45.0721 147.198 45.0721 145.359C45.0721 143.52 43.6671 142.07 41.9369 142.126Z" fill="#D8DEE8"/>
<path d="M118.402 152.951L55.7628 155.45C53.6571 155.534 51.9467 157.433 51.9467 159.692C51.9467 161.95 53.6571 163.705 55.7628 163.612L118.402 160.838C120.364 160.751 121.951 158.919 121.951 156.745C121.951 154.572 120.364 152.873 118.402 152.951Z" fill="#D8DEE8"/>
<path d="M41.9369 164.995C39.4027 165.108 37.3358 163.005 37.3358 160.307C37.3358 157.608 39.4027 155.331 41.9369 155.231C44.4644 155.131 46.5156 157.235 46.5156 159.92C46.5156 162.606 44.4644 164.882 41.9369 164.995ZM41.9369 156.773C40.2037 156.842 38.7912 158.4 38.7912 160.245C38.7912 162.09 40.2037 163.529 41.9369 163.453C43.667 163.377 45.0721 161.82 45.0721 159.981C45.0721 158.142 43.6671 156.703 41.9369 156.773Z" fill="#D8DEE8"/>
<path d="M118.402 167L55.7628 169.988C53.6571 170.089 51.9467 172.001 51.9467 174.26C51.9467 176.518 53.6571 178.26 55.7628 178.15L118.402 174.886C120.364 174.784 121.951 172.94 121.951 170.766C121.951 168.593 120.364 166.906 118.402 167Z" fill="#D8DEE8"/>
<path d="M41.9724 178.868L41.9016 178.872C39.784 178.983 38.0638 177.309 38.0638 175.133V174.772C38.0638 172.596 39.784 170.751 41.9016 170.65L41.9724 170.646C44.0851 170.545 45.7942 172.22 45.7942 174.387V174.747C45.7943 176.913 44.0851 178.758 41.9724 178.868Z" fill="#B19AF3"/>
<path d="M41.9369 179.641C39.4027 179.774 37.3358 177.687 37.3358 174.989C37.3358 172.29 39.4027 169.997 41.9369 169.877C44.4644 169.758 46.5156 171.845 46.5156 174.531C46.5156 177.216 44.4644 179.508 41.9369 179.641ZM41.9369 171.419C40.2037 171.502 38.7912 173.071 38.7912 174.916C38.7912 176.761 40.2037 178.189 41.9369 178.099C43.667 178.01 45.0721 176.441 45.0721 174.603C45.0721 172.764 43.6671 171.335 41.9369 171.419Z" fill="#D8DEE8"/>
<mask id="mask2_25_889" style="mask-type:luminance" maskUnits="userSpaceOnUse" x="51" y="28" width="59" height="64">
<path d="M109.468 60.1513C109.468 77.2506 96.8172 91.1812 80.966 91.2676C64.8359 91.3554 51.5503 77.1215 51.5503 59.4738C51.5503 41.8261 64.8359 27.903 80.966 28.3682C96.8173 28.8255 109.468 43.0521 109.468 60.1513Z" fill="white"/>
</mask>
<g mask="url(#mask2_25_889)">
<path d="M87.5317 38.551C87.7905 36.7257 91.3398 35.3986 94.3469 35.651C102.575 36.3413 111.279 49.2295 109.137 57.6967C107.26 65.1155 97.7905 66.3024 98.067 72.2363C98.2773 76.7468 103.901 79.0476 103.223 80.5255C102.512 82.0779 95.3759 81.5674 91.5468 76.727C87.9314 72.1566 88.7647 65.6273 89.0483 63.4056C90.2379 54.0855 95.8857 51.2089 94.347 46.2859C92.9363 41.7728 87.1897 40.9632 87.5317 38.551Z" fill="url(#paint6_linear_25_889)"/>
<path d="M49.1561 82.765C49.1561 82.765 77.0996 65.0938 111.709 82.715C111.709 82.715 107.297 97.8457 80.9658 98.8418C53.8565 99.8673 49.1561 82.765 49.1561 82.765Z" fill="url(#paint7_linear_25_889)"/>
<path d="M76.0095 59.7599L74.9615 68.1984C74.6039 71.0777 72.7707 73.4856 70.2209 74.4189L61.7022 77.5371C61.7022 77.5371 78.0103 86.0369 98.6309 77.5303L89.2271 73.9866C86.5587 72.9007 84.7403 70.1686 84.6241 67.0632L84.3546 59.8575L76.0095 59.7599Z" fill="url(#paint8_linear_25_889)"/>
<path d="M77.1098 65.472C72.8251 64.2284 70.5291 60.4358 69.1677 58.187C66.8858 54.4177 63.7368 46.6162 66.7011 42.1823C68.0169 40.2144 69.0928 41.0782 76.9935 37.3571C81.6369 35.1702 82.2303 34.4145 83.9456 34.6346C88.7935 35.2566 91.6116 42.2743 91.9901 43.2173C92.4881 44.4572 95.3413 51.5627 91.7613 58.2195C88.8911 63.5567 82.7048 67.0957 77.1098 65.472Z" fill="url(#paint9_linear_25_889)"/>
<path d="M88.7285 52.4581C88.7285 59.5839 84.7614 67.209 79.8438 67.1713C74.8996 67.1333 70.8722 59.3719 70.8722 52.1764C70.8722 44.9809 74.8996 41.1331 79.8438 41.2409C84.7614 41.3481 88.7285 45.3323 88.7285 52.4581Z" fill="url(#paint10_linear_25_889)"/>
<path d="M70.5743 56.8131C71.4266 56.7741 70.1964 49.2859 73.4977 47.2523C75.6897 45.902 79.4943 47.1994 81.6341 49.6661C85.0075 53.5546 83.12 59.068 85.6755 60.2757C87.2979 61.0424 89.4639 59.4789 90.5017 58.3287C93.7428 54.7367 93.301 47.0497 89.4696 42.6639C86.4159 39.1684 82.2723 38.9809 81.287 38.9691C75.648 38.9016 70.4716 43.3628 69.2852 48.6937C68.3733 52.7901 69.9441 56.8419 70.5743 56.8131Z" fill="url(#paint11_linear_25_889)"/>
</g>
<path opacity="0.35" d="M88.6989 151.139C87.0011 128.913 99.7307 119.721 94.8785 99.5942C88.8772 74.7011 65.7594 73.6058 57.8733 49.1435C54.9747 40.1523 53.7568 26.7546 61.2924 7.51224L29.6476 6.25317C28.7062 6.21573 27.9395 6.99496 27.9395 7.99026V202.808C27.9395 203.803 28.7062 204.563 29.6476 204.501L116.097 198.851C95.6699 181.023 89.6991 164.233 88.6989 151.139Z" fill="white"/>
<path d="M129.565 7.77955L29.6476 3.66704C27.3506 3.57252 25.4844 5.46538 25.4844 7.89517V202.966C25.4844 205.396 27.3506 207.241 29.6476 207.088L129.565 200.421C131.62 200.283 133.283 198.315 133.283 196.024V12.0811C133.283 9.78986 131.62 7.8641 129.565 7.77955Z" fill="#D8DEE8"/>
<g opacity="0.3">
<path d="M88.699 151.139C87.0012 128.913 99.7307 119.721 94.8785 99.5942C88.8772 74.7011 65.7595 73.6058 57.8733 49.1435C54.85 39.7653 53.6552 25.5945 62.3083 5.01109L29.6477 3.6668C27.3507 3.57228 25.4844 5.46514 25.4844 7.89492V202.966C25.4844 205.395 27.3507 207.241 29.6477 207.087L118.792 201.139C96.1928 182.476 89.7423 164.798 88.699 151.139Z" fill="#D8DEE8"/>
</g>
<path d="M129.565 10.2287L29.6476 6.25325C28.7062 6.21581 27.9395 6.99503 27.9395 7.99033V202.808C27.9395 203.803 28.7062 204.563 29.6476 204.501L129.565 197.971C130.408 197.916 131.094 197.106 131.094 196.165V11.9959C131.094 11.055 130.408 10.2622 129.565 10.2287Z" fill="url(#paint12_linear_25_889)"/>
<path d="M80.966 96.2995C62.259 96.4528 46.756 79.9089 46.756 59.4178C46.756 38.9266 62.259 22.7455 80.966 23.3364C99.299 23.9155 113.946 40.4495 113.946 60.2038C113.946 79.9582 99.299 96.1493 80.966 96.2995Z" fill="#D8DEE8"/>
<path d="M111.709 60.1776C111.709 78.6219 98.0735 93.6669 80.966 93.7836C63.5333 93.9025 49.1562 78.5299 49.1562 59.4458C49.1562 40.3618 63.5333 25.3255 80.966 25.8523C98.0735 26.3692 111.709 41.7333 111.709 60.1776Z" fill="white"/>
<path opacity="0.74" d="M118.402 109.328L41.937 110.521C39.7998 110.555 38.0639 112.426 38.0639 114.702C38.0639 116.977 39.7998 118.787 41.937 118.744L118.402 117.214C120.364 117.175 121.951 115.381 121.951 113.208C121.951 111.034 120.364 109.297 118.402 109.328Z" fill="url(#paint13_linear_25_889)"/>
<path d="M118.402 124.855L55.7628 126.374C53.6571 126.425 51.9467 128.297 51.9467 130.556C51.9467 132.814 53.6571 134.596 55.7628 134.536L118.402 132.742C120.364 132.685 121.951 130.878 121.951 128.704C121.951 126.531 120.364 124.807 118.402 124.855Z" fill="#D8DEE8"/>
<path d="M41.9724 134.931L41.9016 134.933C39.784 134.993 38.0638 133.279 38.0638 131.104V130.742C38.0638 128.567 39.784 126.762 41.9016 126.71L41.9724 126.709C44.0851 126.657 45.7942 128.372 45.7942 130.539V130.898C45.7943 133.065 44.0851 134.87 41.9724 134.931Z" fill="#B19AF3"/>
<path d="M41.9369 135.703C39.4027 135.776 37.3358 133.641 37.3358 130.942C37.3358 128.244 39.4027 125.999 41.9369 125.938C44.4644 125.878 46.5156 128.014 46.5156 130.699C46.5156 133.385 44.4644 135.629 41.9369 135.703ZM41.9369 127.48C40.2037 127.523 38.7912 129.059 38.7912 130.904C38.7912 132.749 40.2037 134.21 41.9369 134.161C43.667 134.112 45.0721 132.576 45.0721 130.738C45.0721 128.899 43.6671 127.438 41.9369 127.48Z" fill="#D8DEE8"/>
<path d="M118.402 138.903L55.7628 140.912C53.6571 140.98 51.9467 142.865 51.9467 145.124C51.9467 147.382 53.6571 149.151 55.7628 149.074L118.402 146.79C120.364 146.718 121.951 144.898 121.951 142.725C121.951 140.551 120.364 138.84 118.402 138.903Z" fill="#D8DEE8"/>
<path d="M41.9724 149.577L41.9016 149.579C39.784 149.656 38.0638 147.956 38.0638 145.78V145.419C38.0638 143.243 39.784 141.425 41.9016 141.357L41.9724 141.354C44.0851 141.287 45.7942 142.988 45.7942 145.155V145.514C45.7943 147.681 44.0851 149.5 41.9724 149.577Z" fill="#B19AF3"/>
<path d="M41.9369 150.349C39.4027 150.442 37.3358 148.323 37.3358 145.624C37.3358 142.926 39.4027 140.665 41.9369 140.585C44.4644 140.505 46.5156 142.624 46.5156 145.31C46.5156 147.995 44.4644 150.256 41.9369 150.349ZM41.9369 142.126C40.2037 142.183 38.7912 143.73 38.7912 145.574C38.7912 147.419 40.2037 148.87 41.9369 148.807C43.667 148.745 45.0721 147.198 45.0721 145.359C45.0721 143.52 43.6671 142.07 41.9369 142.126Z" fill="#D8DEE8"/>
<path d="M118.402 152.951L55.7628 155.45C53.6571 155.534 51.9467 157.433 51.9467 159.692C51.9467 161.95 53.6571 163.705 55.7628 163.612L118.402 160.838C120.364 160.751 121.951 158.919 121.951 156.745C121.951 154.572 120.364 152.873 118.402 152.951Z" fill="#D8DEE8"/>
<path d="M41.9369 164.995C39.4027 165.108 37.3358 163.005 37.3358 160.307C37.3358 157.608 39.4027 155.331 41.9369 155.231C44.4644 155.131 46.5156 157.235 46.5156 159.92C46.5156 162.606 44.4644 164.882 41.9369 164.995ZM41.9369 156.773C40.2037 156.842 38.7912 158.4 38.7912 160.245C38.7912 162.09 40.2037 163.529 41.9369 163.453C43.667 163.377 45.0721 161.82 45.0721 159.981C45.0721 158.142 43.6671 156.703 41.9369 156.773Z" fill="#D8DEE8"/>
<path d="M118.402 167L55.7628 169.988C53.6571 170.089 51.9467 172.001 51.9467 174.26C51.9467 176.518 53.6571 178.26 55.7628 178.15L118.402 174.886C120.364 174.784 121.951 172.94 121.951 170.766C121.951 168.593 120.364 166.906 118.402 167Z" fill="#D8DEE8"/>
<path d="M41.9724 178.868L41.9016 178.872C39.784 178.983 38.0638 177.309 38.0638 175.133V174.772C38.0638 172.596 39.784 170.751 41.9016 170.65L41.9724 170.646C44.0851 170.545 45.7942 172.22 45.7942 174.387V174.747C45.7943 176.913 44.0851 178.758 41.9724 178.868Z" fill="#B19AF3"/>
<path d="M41.9369 179.641C39.4027 179.774 37.3358 177.687 37.3358 174.989C37.3358 172.29 39.4027 169.997 41.9369 169.877C44.4644 169.758 46.5156 171.845 46.5156 174.531C46.5156 177.216 44.4644 179.508 41.9369 179.641ZM41.9369 171.419C40.2037 171.502 38.7912 173.071 38.7912 174.916C38.7912 176.761 40.2037 178.189 41.9369 178.099C43.667 178.01 45.0721 176.441 45.0721 174.603C45.0721 172.764 43.6671 171.335 41.9369 171.419Z" fill="#D8DEE8"/>
<path opacity="0.35" d="M88.6989 151.139C87.0011 128.913 99.7307 119.721 94.8785 99.5942C88.8772 74.7011 65.7594 73.6058 57.8733 49.1435C54.9747 40.1523 53.7568 26.7546 61.2924 7.51224L29.6476 6.25317C28.7062 6.21573 27.9395 6.99496 27.9395 7.99026V202.808C27.9395 203.803 28.7062 204.563 29.6476 204.501L116.097 198.851C95.6699 181.023 89.6991 164.233 88.6989 151.139Z" fill="#F0EDFF"/>
<path d="M125.219 35.0334L116.073 27.6668L106.832 34.5843V11.3388C106.832 9.52634 106.029 7.78383 104.654 6.61568L104.583 6.55524L122.021 7.25094C123.789 7.32142 125.219 8.88295 125.219 10.7388V35.0334H125.219Z" fill="#D8DEE8"/>
<path d="M126.893 35.0334L117.747 27.2359L108.506 34.558V9.95312C108.506 8.03469 107.703 6.19026 106.327 4.95375L106.256 4.88979L123.695 5.62615C125.463 5.70081 126.893 7.35364 126.893 9.31801V35.0334Z" fill="url(#paint14_linear_25_889)"/>
<path d="M115.261 105.744C96.9625 106.355 81.7874 90.7941 81.7874 71.0452C81.7874 51.2963 96.9625 35.3398 115.261 35.4731C133.18 35.6036 147.487 51.1758 147.487 70.1884C147.487 89.2011 133.18 105.146 115.261 105.744Z" fill="url(#paint15_linear_25_889)"/>
<path d="M117.567 105.744C99.2686 106.355 84.0935 90.7941 84.0935 71.0452C84.0935 51.2963 99.2686 35.3398 117.567 35.4731C135.486 35.6036 149.793 51.1758 149.793 70.1884C149.793 89.2011 135.486 105.146 117.567 105.744Z" fill="#D8DEE8"/>
<path d="M147.609 70.2169C147.609 87.9695 134.289 102.787 117.567 103.321C100.516 103.866 86.4436 89.4064 86.4436 71.0146C86.4436 52.6227 100.516 37.7959 117.567 37.8962C134.289 37.9946 147.609 52.4642 147.609 70.2169Z" fill="#E8E5FF"/>
<mask id="mask3_25_889" style="mask-type:luminance" maskUnits="userSpaceOnUse" x="88" y="40" width="58" height="61">
<path d="M145.419 70.2454C145.419 86.7043 133.061 100.424 117.567 100.898C101.79 101.38 88.7874 87.9908 88.7874 70.9841C88.7874 53.9773 101.79 40.2488 117.567 40.3194C133.061 40.3888 145.419 53.7866 145.419 70.2454Z" fill="white"/>
</mask>
<g mask="url(#mask3_25_889)">
<path d="M86.4436 93.5701C86.4436 93.5701 113.786 75.864 147.609 91.9885C147.609 91.9885 143.299 106.661 117.567 108.273C91.0451 109.935 86.4436 93.5701 86.4436 93.5701Z" fill="#462FE1"/>
<path d="M112.72 70.6719L111.695 78.8253C111.398 84.0084 106.595 86.0587 106.595 86.0587C112.234 93.0654 123.013 92.5328 126.783 85.6811C124.178 84.7034 121.257 80.4861 121.144 77.4983L120.88 70.5655L112.72 70.6719Z" fill="url(#paint16_linear_25_889)"/>
<path d="M125.156 63.3351C125.156 70.1969 121.278 77.6354 116.47 77.7178C111.635 77.8007 107.695 70.4214 107.695 63.4901C107.695 56.5586 111.635 52.7568 116.47 52.7436C121.278 52.7306 125.156 56.4732 125.156 63.3351Z" fill="url(#paint17_linear_25_889)"/>
<path d="M107.435 65.2416C107.919 65.1556 108.402 65.0696 108.885 64.9837C108.663 64.4184 107.747 61.9142 108.885 59.7073C109.977 57.5896 112.547 56.5468 114.509 56.6757C116.738 56.8221 118.075 57.9099 119.193 57.0559C119.822 56.576 120.025 55.7094 120.097 55.0349C120.147 55.466 120.259 56.1034 120.549 56.807C121.38 58.8279 122.787 59.241 123.552 60.5749C124.068 61.4729 124.403 62.98 123.552 65.6459C123.977 65.6147 124.402 65.5835 124.826 65.5525C125.274 64.0559 125.811 61.9345 126.145 59.3417C126.641 55.4918 126.982 52.8419 125.574 51.5558C125.294 51.2995 124.052 50.2834 121.081 51.2475C120.385 50.4765 118.918 49.065 116.66 48.3543C115.879 48.1084 112.004 46.8887 108.568 49.5336C106.231 51.3326 104.399 54.687 104.987 57.4554C105.299 58.9193 106.151 59.5733 106.9 62.4025C107.217 63.597 107.362 64.6029 107.435 65.2416Z" fill="url(#paint18_linear_25_889)"/>
<path d="M123.949 65.8794C123.949 65.8794 124.507 62.8679 126.2 63.1511C127.89 63.4337 125.468 68.382 123.949 68.9925V65.8794Z" fill="url(#paint19_linear_25_889)"/>
<path d="M108.783 66.0362C108.783 66.0362 108.215 63.0081 106.486 63.3241C104.754 63.6407 107.234 68.5973 108.783 69.1767V66.0362Z" fill="url(#paint20_linear_25_889)"/>
</g>
<path d="M147.559 90.6993C147.014 91.4985 146.469 92.2978 145.924 93.0969C148.319 94.9612 151.203 97.8389 151.156 101.317C151.085 106.573 144.39 108.274 143.962 113.648C143.528 119.093 149.727 125.771 153.772 124.951C158.927 123.907 163.511 110.089 158.677 100.29C155.601 94.0548 149.73 91.5119 147.559 90.6993Z" fill="#4D34FA"/>
<path opacity="0.3" d="M147.559 90.6993C147.609 91.4374 147.795 92.5415 148.54 93.4394C149.591 94.7083 150.86 94.4834 152.137 95.1521C154.736 96.5128 156.049 100.882 155.407 104.4C154.751 107.994 152.176 110.033 151.483 110.566C147.909 113.309 144.821 111.94 143.962 113.648C142.477 116.599 149.051 125.908 153.772 124.951C158.927 123.907 163.511 110.089 158.677 100.29C155.601 94.0548 149.73 91.5119 147.559 90.6993Z" fill="#462FE1"/>
<path d="M147.161 92.799C147.161 92.799 145.401 92.164 144.889 91.5405C144.377 90.9171 144.81 88.7432 144.83 87.0113C144.851 85.2792 145.611 87.7893 145.787 88.3567C145.963 88.9243 145.84 90.2405 147.19 91.2663L147.161 92.799Z" fill="url(#paint21_linear_25_889)"/>
<path d="M143.067 103.398C142.43 102.083 142.167 102.091 142.011 101.397C141.654 99.8168 142.575 97.8092 143.355 97.7814C143.858 97.7634 143.9 98.5828 144.965 99.86C146.27 101.425 147.062 101.219 147.83 102.577C148.01 102.895 148.818 104.325 148.321 105.392C147.687 106.754 145.185 106.97 144.139 105.919C143.643 105.421 143.852 105.016 143.067 103.398Z" fill="url(#paint22_linear_25_889)"/>
<path d="M144.942 104.816C144.942 104.816 144.495 107.313 144.813 109.344C145.101 111.179 148.347 113.086 148.969 113.633C149.591 114.179 147.319 114.772 145.234 114.487C143.15 114.201 137.443 112.288 136.576 111.222C135.709 110.156 137.586 110.681 139.164 110.48C140.743 110.278 142.25 107.507 142.296 106.092C142.342 104.678 144.942 104.816 144.942 104.816Z" fill="url(#paint23_linear_25_889)"/>
<path d="M144.262 106.68C144.262 106.68 142.667 107.413 141.254 106.23C139.988 105.17 141.87 101.914 143.157 101.872C143.586 101.858 144.213 102.181 144.583 102.652C144.802 102.931 144.815 103.116 145.18 103.564C145.517 103.977 145.666 104.014 145.717 104.214C145.781 104.465 145.671 104.884 144.805 105.605C145.236 105.522 145.609 105.641 145.753 105.904C145.776 105.947 145.823 106.078 145.809 106.214C145.757 106.705 145.145 106.933 144.262 106.68Z" fill="url(#paint24_linear_25_889)"/>
<path d="M97.7701 99.5503C97.7701 99.5503 96.8133 99.7505 96.4899 97.8213C96.2365 96.309 95.9074 95.8896 95.6694 96.261C95.4314 96.6324 95.6612 97.4759 95.6612 97.4759C95.6612 97.4759 94.1352 96.8549 93.1924 95.655C92.2497 94.4551 92.3244 95.7283 92.4499 96.4546C92.5754 97.181 94.0829 99.028 94.6653 99.2623C95.2477 99.4965 96.4898 101.013 96.4898 101.013L97.7701 99.5503Z" fill="url(#paint25_linear_25_889)"/>
<path d="M128.913 206.618C129.41 207.68 129.271 208.136 129.147 208.337C128.784 208.926 127.911 208.37 125.63 208.653C125.363 208.686 124.852 208.759 124.215 208.601C123.669 208.467 123.026 208.162 123.053 208.009C123.063 207.954 123.16 207.931 123.197 207.923C123.83 207.782 127.792 206.508 127.792 206.508L128.913 206.618Z" fill="url(#paint26_linear_25_889)"/>
<path d="M129.772 204.493L129.1 206.365C128.997 206.653 128.745 206.853 128.453 206.876C128.156 206.899 127.833 206.81 127.791 206.33C127.732 205.675 128.066 204.014 128.066 204.014L129.772 204.493Z" fill="url(#paint27_linear_25_889)"/>
<path d="M156.374 201.363L157.33 204.097L158.719 203.865L158.397 201.333L156.374 201.363Z" fill="url(#paint28_linear_25_889)"/>
<path d="M157.762 205.603C158.435 204.767 159.035 204.843 159.156 204.269C159.251 203.817 158.987 203.264 158.589 203.053C158.03 202.758 157.352 203.22 157.199 203.324C156.159 204.032 156.442 205.139 155.462 205.62C155.264 205.716 154.952 205.819 154.622 206.142C154.482 206.28 154.135 206.62 154.216 206.855C154.31 207.126 154.929 207.116 155.517 207.107C156.222 207.097 156.575 207.092 156.914 206.87C157.384 206.562 157.243 206.248 157.762 205.603Z" fill="url(#paint29_linear_25_889)"/>
<path d="M154.187 144.279C154.998 149.744 155.165 154.522 155.063 158.468C154.954 162.713 154.597 163.512 154.834 166.387C155.351 172.644 157.397 173.16 158.962 180.044C160.69 187.645 159.81 194.119 159.451 196.593C159.138 198.755 158.725 200.533 158.397 201.775C157.833 202.517 156.765 202.479 155.642 202.457C154.023 195.572 152.379 189.117 150.761 182.233C147.64 172.008 144.519 161.784 141.399 151.559C145.661 149.132 149.924 146.706 154.187 144.279Z" fill="url(#paint30_linear_25_889)"/>
<path opacity="0.3" d="M155.642 202.457C154.023 195.572 152.379 189.117 150.761 182.233C147.64 172.008 144.519 161.784 141.399 151.559C145.662 149.132 149.924 146.706 154.187 144.28C154.241 144.641 154.284 144.992 154.332 145.348C148.983 152.358 148.541 157.183 149.151 160.298C149.891 164.077 152.2 165.576 152.776 171.15C153.188 175.136 152.181 176.045 152.803 179.593C153.604 184.162 155.926 186.372 157.3 188.837C158.629 191.219 159.575 194.773 158.773 200.241C158.643 200.815 158.515 201.331 158.397 201.775C157.833 202.517 156.765 202.479 155.642 202.457Z" fill="url(#paint31_linear_25_889)"/>
<path d="M146.761 150.924C146.659 153.545 146.242 157.512 144.616 161.944C142.436 167.885 140.046 169.309 139.057 174.274C138.024 179.46 139.916 181.489 140.012 186.264C140.103 190.735 138.607 197.128 131.209 205.101C130.01 204.987 128.811 204.873 127.612 204.759C128.574 200.894 129.851 194.868 130.494 187.326C130.816 183.548 130.859 180.788 130.882 179.755C131.019 173.486 131.87 162.828 135.043 143.597C138.949 146.039 142.855 148.482 146.761 150.924Z" fill="url(#paint32_linear_25_889)"/>
<path d="M95.5662 100.29C96.3291 99.8332 97.0921 99.3765 97.8552 98.9198C106.302 107.617 113.663 110.016 118.841 110.59C126.662 111.457 132.123 108.126 142.555 110.394C145.841 111.109 151.568 112.44 154.744 117.344C155.579 118.632 155.876 119.608 157.262 128.854C159.034 140.673 159.097 142.735 158.847 145.28C158.39 149.937 158.113 152.759 156.063 155.257C150.619 161.89 139.049 158.47 137.599 158.02C134.919 157.189 130.754 155.896 129.099 152.187C127.872 149.437 129.189 147.818 129.6 142.465C129.807 139.768 130.453 131.336 126.631 126.321C123.884 122.718 120.065 122.501 116.327 121.276C110.411 119.338 102.788 114.252 95.5662 100.29Z" fill="#4D34FA"/>
<g opacity="0.3">
<path d="M151.17 152.098C147.99 149.093 146.112 150.015 144.174 147.629C139.694 142.112 146.36 133.034 142.429 128.68C139.281 125.194 133.269 129.088 129.833 124.956C127.554 122.216 129.606 119.79 127.583 116.955C124.38 112.468 117.198 115.682 107.801 112.868C105.589 112.205 103.63 111.318 101.919 110.358C107.079 116.941 112.132 119.902 116.327 121.276C120.065 122.501 123.884 122.718 126.631 126.321C130.453 131.336 129.807 139.768 129.6 142.465C129.189 147.818 127.872 149.438 129.099 152.188C130.754 155.897 134.919 157.189 137.598 158.02C138.925 158.432 148.705 161.32 154.533 156.747C153.742 155.128 152.664 153.51 151.17 152.098Z" fill="#3423A8"/>
</g>
<path d="M36.6478 204.958C36.5421 205.917 36.0973 206.689 35.5115 206.93C34.0482 207.534 32.1547 207.762 29.941 207.764C27.6933 207.767 25.7744 207.528 24.2992 206.916C23.7315 206.68 23.2956 205.946 23.1747 205.023L19.25 175.061H39.9458L36.6478 204.958Z" fill="url(#paint33_linear_25_889)"/>
<path d="M29.5979 176.727C35.3129 176.727 39.9458 175.981 39.9458 175.061C39.9458 174.14 35.3129 173.394 29.5979 173.394C23.8829 173.394 19.25 174.14 19.25 175.061C19.25 175.981 23.8829 176.727 29.5979 176.727Z" fill="url(#paint34_linear_25_889)"/>
<path d="M30.4529 174.945C31.2058 174.945 31.9586 174.945 32.7115 174.945C48.2239 163.377 51.0559 155.105 50.407 149.493C49.8334 144.532 46.6686 142.763 41.958 130.446C39.1499 123.103 37.7458 119.431 37.8552 115.444C38.0943 106.729 43.3645 105.593 46.223 94.2054C47.3625 89.6665 49.2502 82.1463 45.9012 74.8211C42.3084 66.9625 34.3831 61.5173 32.3948 63.0235C31.0763 64.0223 32.3791 68.0898 33.6713 72.1241C37.0939 82.8098 41.5087 85.261 41.958 91.5084C42.2355 95.3678 40.7317 96.9498 37.3724 104.319C30.57 119.241 26.8932 127.307 28.3609 135.165C30.3682 145.913 40.2747 147.046 40.9127 156.404C41.4317 164.015 35.3821 170.664 30.4529 174.945Z" fill="url(#paint35_linear_25_889)"/>
<path d="M19.3493 59.8193C17.1958 59.5205 12.504 69.09 12.5907 79.3722C12.6749 89.3607 17.191 90.8199 18.5447 101.116C20.2639 114.193 13.4564 115.468 14.5217 128.254C15.4962 139.951 21.4425 141.882 24.8206 157.921C26.3094 164.99 26.5069 171.036 26.4298 175.114C27.1808 175.114 27.9317 175.114 28.6827 175.114C33.2825 165.113 34.4431 156.805 34.6367 151.01C35.1312 136.205 29.4866 132.62 31.4183 118.141C32.7022 108.517 35.7278 106.115 34.4758 98.0822C33.704 93.1299 31.7527 88.9017 28.5218 81.9005C25.4364 75.2147 23.9644 73.7733 22.0849 67.9101C20.3356 62.4528 20.4137 59.9671 19.3493 59.8193Z" fill="url(#paint36_linear_25_889)"/>
<path d="M24.016 174.777C24.2954 171.168 24.139 166.043 21.6022 161.123C17.3318 152.841 10.8171 153.869 5.51013 146.459C-0.0715022 138.665 -0.970285 126.21 2.61359 117.298C6.05819 108.732 12.2414 106.832 12.2688 99.0935C12.291 92.8355 8.17207 88.3284 8.72859 87.9686C9.30126 87.5985 13.9641 92.1759 15.8297 98.9236C16.559 101.561 16.8593 104.525 15.8297 112.578C14.2756 124.735 12.5257 126.319 12.5906 130.783C12.7275 140.177 21.5581 141.33 26.108 151.853C28.1719 156.626 29.8333 164.021 27.3954 175.114C26.2689 175.001 25.1425 174.889 24.016 174.777Z" fill="url(#paint37_linear_25_889)"/>
<defs>
<linearGradient id="paint0_linear_25_889" x1="86.2712" y1="49.5571" x2="115.492" y2="85.7313" gradientUnits="userSpaceOnUse">
<stop stop-color="#AA80F9"/>
<stop offset="0.9964" stop-color="#6165D7"/>
</linearGradient>
<linearGradient id="paint1_linear_25_889" x1="233.82" y1="109.84" x2="149.817" y2="143.358" gradientUnits="userSpaceOnUse">
<stop stop-color="#FF9085"/>
<stop offset="1" stop-color="#FB6FBB"/>
</linearGradient>
<linearGradient id="paint2_linear_25_889" x1="22.818" y1="105.38" x2="130.616" y2="105.38" gradientUnits="userSpaceOnUse">
<stop stop-color="#444B8C"/>
<stop offset="0.9964" stop-color="#26264F"/>
</linearGradient>
<linearGradient id="paint3_linear_25_889" x1="103.112" y1="6.4836" x2="110.365" y2="6.4836" gradientUnits="userSpaceOnUse">
<stop stop-color="#AB316D"/>
<stop offset="1" stop-color="#792D3D"/>
</linearGradient>
<linearGradient id="paint4_linear_25_889" x1="129.452" y1="16.4981" x2="49.2443" y2="141.798" gradientUnits="userSpaceOnUse">
<stop stop-color="white"/>
<stop offset="0.9964" stop-color="#EBEFF2"/>
</linearGradient>
<linearGradient id="paint5_linear_25_889" x1="38.0638" y1="114.036" x2="121.951" y2="114.036" gradientUnits="userSpaceOnUse">
<stop stop-color="#AA80F9"/>
<stop offset="0.9964" stop-color="#6165D7"/>
</linearGradient>
<linearGradient id="paint6_linear_25_889" x1="104.774" y1="33.3134" x2="94.741" y2="58.791" gradientUnits="userSpaceOnUse">
<stop stop-color="#AB316D"/>
<stop offset="1" stop-color="#792D3D"/>
</linearGradient>
<linearGradient id="paint7_linear_25_889" x1="84.9001" y1="61.1623" x2="77.8513" y2="92.1923" gradientUnits="userSpaceOnUse">
<stop stop-color="#AA80F9"/>
<stop offset="0.9964" stop-color="#6165D7"/>
</linearGradient>
<linearGradient id="paint8_linear_25_889" x1="80.0932" y1="62.6333" x2="80.228" y2="87.5951" gradientUnits="userSpaceOnUse">
<stop offset="0.0036" stop-color="#F36F56"/>
<stop offset="1" stop-color="#FFC444"/>
</linearGradient>
<linearGradient id="paint9_linear_25_889" x1="100.812" y1="7.34488" x2="54.069" y2="91.8556" gradientUnits="userSpaceOnUse">
<stop stop-color="#AB316D"/>
<stop offset="1" stop-color="#792D3D"/>
</linearGradient>
<linearGradient id="paint10_linear_25_889" x1="83.4849" y1="26.3873" x2="77.443" y2="65.2592" gradientUnits="userSpaceOnUse">
<stop offset="0.0036" stop-color="#F36F56"/>
<stop offset="1" stop-color="#FFC444"/>
</linearGradient>
<linearGradient id="paint11_linear_25_889" x1="96.7132" y1="20.0317" x2="63.2045" y2="80.6149" gradientUnits="userSpaceOnUse">
<stop stop-color="#AB316D"/>
<stop offset="1" stop-color="#792D3D"/>
</linearGradient>
<linearGradient id="paint12_linear_25_889" x1="129.452" y1="16.4981" x2="49.2443" y2="141.798" gradientUnits="userSpaceOnUse">
<stop stop-color="white"/>
<stop offset="0.9964" stop-color="#EBEFF2"/>
</linearGradient>
<linearGradient id="paint13_linear_25_889" x1="38.0638" y1="114.036" x2="121.951" y2="114.036" gradientUnits="userSpaceOnUse">
<stop stop-color="#AA80F9"/>
<stop offset="0.9964" stop-color="#6165D7"/>
</linearGradient>
<linearGradient id="paint14_linear_25_889" x1="128.739" y1="-2.62045" x2="99.6755" y2="46.5553" gradientUnits="userSpaceOnUse">
<stop stop-color="#FF9085"/>
<stop offset="1" stop-color="#FB6FBB"/>
</linearGradient>
<linearGradient id="paint15_linear_25_889" x1="81.7874" y1="70.6169" x2="147.487" y2="70.6169" gradientUnits="userSpaceOnUse">
<stop stop-color="#444B8C"/>
<stop offset="0.9964" stop-color="#26264F"/>
</linearGradient>
<linearGradient id="paint16_linear_25_889" x1="116.627" y1="73.3379" x2="116.755" y2="97.0404" gradientUnits="userSpaceOnUse">
<stop offset="0.0036" stop-color="#F36F56"/>
<stop offset="1" stop-color="#FFC444"/>
</linearGradient>
<linearGradient id="paint17_linear_25_889" x1="119.96" y1="40.6382" x2="113.708" y2="77.4974" gradientUnits="userSpaceOnUse">
<stop offset="0.0036" stop-color="#F36F56"/>
<stop offset="1" stop-color="#FFC444"/>
</linearGradient>
<linearGradient id="paint18_linear_25_889" x1="116.959" y1="48.296" x2="113.899" y2="66.3379" gradientUnits="userSpaceOnUse">
<stop stop-color="#444B8C"/>
<stop offset="0.9964" stop-color="#26264F"/>
</linearGradient>
<linearGradient id="paint19_linear_25_889" x1="128.899" y1="42.1765" x2="122.667" y2="78.9182" gradientUnits="userSpaceOnUse">
<stop offset="0.0036" stop-color="#F36F56"/>
<stop offset="1" stop-color="#FFC444"/>
</linearGradient>
<linearGradient id="paint20_linear_25_889" x1="111.578" y1="39.2201" x2="105.314" y2="76.1521" gradientUnits="userSpaceOnUse">
<stop offset="0.0036" stop-color="#F36F56"/>
<stop offset="1" stop-color="#FFC444"/>
</linearGradient>
<linearGradient id="paint21_linear_25_889" x1="151.455" y1="102.701" x2="145.001" y2="90.2659" gradientUnits="userSpaceOnUse">
<stop offset="0.0036" stop-color="#F36F56"/>
<stop offset="1" stop-color="#FFC444"/>
</linearGradient>
<linearGradient id="paint22_linear_25_889" x1="145.268" y1="104.853" x2="144.97" y2="95.189" gradientUnits="userSpaceOnUse">
<stop stop-color="#AB316D"/>
<stop offset="1" stop-color="#792D3D"/>
</linearGradient>
<linearGradient id="paint23_linear_25_889" x1="143.271" y1="90.5142" x2="142.476" y2="118.909" gradientUnits="userSpaceOnUse">
<stop offset="0.0036" stop-color="#F36F56"/>
<stop offset="1" stop-color="#FFC444"/>
</linearGradient>
<linearGradient id="paint24_linear_25_889" x1="150.337" y1="100.32" x2="141.162" y2="105.694" gradientUnits="userSpaceOnUse">
<stop offset="0.0036" stop-color="#F36F56"/>
<stop offset="1" stop-color="#FFC444"/>
</linearGradient>
<linearGradient id="paint25_linear_25_889" x1="99.936" y1="106.051" x2="95.1619" y2="98.7141" gradientUnits="userSpaceOnUse">
<stop offset="0.0036" stop-color="#F36F56"/>
<stop offset="1" stop-color="#FFC444"/>
</linearGradient>
<linearGradient id="paint26_linear_25_889" x1="124.286" y1="214.817" x2="129.336" y2="198.094" gradientUnits="userSpaceOnUse">
<stop stop-color="#444B8C"/>
<stop offset="0.9964" stop-color="#26264F"/>
</linearGradient>
<linearGradient id="paint27_linear_25_889" x1="127.605" y1="211.382" x2="132.936" y2="185.007" gradientUnits="userSpaceOnUse">
<stop stop-color="#FFC444"/>
<stop offset="0.9964" stop-color="#F36F56"/>
</linearGradient>
<linearGradient id="paint28_linear_25_889" x1="157.611" y1="207.532" x2="157.221" y2="180.578" gradientUnits="userSpaceOnUse">
<stop stop-color="#FFC444"/>
<stop offset="0.9964" stop-color="#F36F56"/>
</linearGradient>
<linearGradient id="paint29_linear_25_889" x1="155.835" y1="208.576" x2="160.885" y2="191.853" gradientUnits="userSpaceOnUse">
<stop stop-color="#444B8C"/>
<stop offset="0.9964" stop-color="#26264F"/>
</linearGradient>
<linearGradient id="paint30_linear_25_889" x1="148.681" y1="151.403" x2="163.661" y2="204.922" gradientUnits="userSpaceOnUse">
<stop stop-color="#444B8C"/>
<stop offset="0.9964" stop-color="#26264F"/>
</linearGradient>
<linearGradient id="paint31_linear_25_889" x1="148.681" y1="151.403" x2="163.661" y2="204.922" gradientUnits="userSpaceOnUse">
<stop stop-color="#444B8C"/>
<stop offset="0.9964" stop-color="#26264F"/>
</linearGradient>
<linearGradient id="paint32_linear_25_889" x1="105.09" y1="176.09" x2="157.499" y2="173.124" gradientUnits="userSpaceOnUse">
<stop stop-color="#444B8C"/>
<stop offset="0.9964" stop-color="#26264F"/>
</linearGradient>
<linearGradient id="paint33_linear_25_889" x1="21.9371" y1="187.408" x2="48.5982" y2="195.964" gradientUnits="userSpaceOnUse">
<stop stop-color="#AB316D"/>
<stop offset="1" stop-color="#792D3D"/>
</linearGradient>
<linearGradient id="paint34_linear_25_889" x1="33.8489" y1="165.75" x2="22.403" y2="188.598" gradientUnits="userSpaceOnUse">
<stop stop-color="#FFC444"/>
<stop offset="0.9964" stop-color="#F36F56"/>
</linearGradient>
<linearGradient id="paint35_linear_25_889" x1="52.9038" y1="67.1032" x2="31.8821" y2="134.669" gradientUnits="userSpaceOnUse">
<stop stop-color="#AA80F9"/>
<stop offset="0.9964" stop-color="#6165D7"/>
</linearGradient>
<linearGradient id="paint36_linear_25_889" x1="27.8609" y1="61.3488" x2="17.6273" y2="178.587" gradientUnits="userSpaceOnUse">
<stop offset="0.0036" stop-color="#E38DDD"/>
<stop offset="1" stop-color="#9571F6"/>
</linearGradient>
<linearGradient id="paint37_linear_25_889" x1="0.477267" y1="131.531" x2="28.6073" y2="131.531" gradientUnits="userSpaceOnUse">
<stop stop-color="#AA80F9"/>
<stop offset="0.9964" stop-color="#6165D7"/>
</linearGradient>
</defs>
</svg>
