<svg width="355" height="255" viewBox="0 0 355 255" fill="none" xmlns="http://www.w3.org/2000/svg">
<path opacity="0.45" d="M188.324 254.107C280.061 254.107 354.429 243.768 354.429 231.014C354.429 218.26 280.061 207.92 188.324 207.92C96.587 207.92 22.219 218.26 22.219 231.014C22.219 243.768 96.587 254.107 188.324 254.107Z" fill="#F0EDFF"/>
<path d="M85.377 232.101C85.377 232.101 84.232 235.831 80.98 236.289C77.729 236.747 77.019 240.02 80.03 240.695C83.041 241.37 90.484 237.147 90.484 237.147L90.003 232.398L85.377 232.101Z" fill="#4D34FA"/>
<path opacity="0.58" d="M277.726 213.036C277.726 213.036 267.203 210.209 264.879 200.448C264.879 200.448 281.149 197.095 281.688 213.894L277.726 213.036Z" fill="#7968ED"/>
<path opacity="0.73" d="M279.02 211.983C279.02 211.983 271.623 200.413 278.035 189.531C278.035 189.531 290.458 197.347 285.019 211.983H279.02Z" fill="#4730E6"/>
<path d="M280.909 211.983C280.909 211.983 284.733 199.716 296.458 197.347C296.458 197.347 298.748 205.289 288.924 211.983H280.909Z" fill="#4D34FA"/>
<path d="M273.283 211.743L275.47 226.31H288.901L290.813 211.743H273.283Z" fill="#F93888"/>
<path d="M252.971 0.493401H122.292V231.014H252.971V0.493401Z" fill="#F0EDFF"/>
<path d="M241.269 27.2026H133.101V192.048H241.269V27.2026Z" fill="white"/>
<path d="M219.067 82.395H156.516V169.619H219.067V82.395Z" fill="#F0EDFF"/>
<path opacity="0.08" d="M192.309 98.748L194.885 86.298L206.335 96.414L217.499 134.235L220.934 132.519L224.06 139.946L219.079 142.532L228.376 161.551C228.376 161.551 202.041 200.997 151.089 183.912L143.646 193.216L172.844 230.98H122.292L123.116 176.542L122.292 117.722V86.252C122.292 86.252 132.391 83.963 136.593 90.383C139.083 94.181 139.972 98.808 139.066 103.257L134.772 103.864L136.593 125.424L153.951 149.329L167.119 171.713L187.637 171.427L207.194 164.275L214.178 153.655L205.476 135.345L192.309 98.748Z" fill="black"/>
<path opacity="0.56" d="M187.637 223.655C194.701 223.655 200.427 217.932 200.427 210.873C200.427 203.813 194.701 198.09 187.637 198.09C180.574 198.09 174.848 203.813 174.848 210.873C174.848 217.932 180.574 223.655 187.637 223.655Z" fill="white"/>
<path opacity="0.12" d="M213.216 9.6482H176.576V14.9924H213.216V9.6482Z" fill="black"/>
<path d="M163.306 18.8718C166.601 18.8718 169.271 16.2024 169.271 12.9096C169.271 9.6168 166.601 6.94749 163.306 6.94749C160.011 6.94749 157.34 9.6168 157.34 12.9096C157.34 16.2024 160.011 18.8718 163.306 18.8718Z" fill="white"/>
<path d="M104.258 94.697C104.258 94.697 102.735 101.048 103.182 105.489C103.226 105.918 103.355 106.334 103.56 106.713C103.765 107.093 104.043 107.428 104.378 107.7C104.713 107.972 105.098 108.175 105.512 108.299C105.926 108.422 106.359 108.462 106.789 108.418C108.185 108.352 109.532 107.885 110.669 107.073C111.806 106.261 112.685 105.139 113.201 103.841L115.972 98.485C116.412 97.355 116.491 96.117 116.198 94.94C115.905 93.764 115.254 92.707 114.334 91.916C111.082 88.746 104.98 90.783 104.258 94.697Z" fill="#F4A28C"/>
<path d="M115.869 101.06L119.418 118.717L108.575 121.407L110.35 104.275L115.869 101.06Z" fill="#F4A28C"/>
<path d="M110.292 101.254C110.292 101.254 110.716 98.771 112.582 99.24C114.449 99.71 113.842 103.291 111.254 103.257L110.292 101.254Z" fill="#F4A28C"/>
<path d="M103.503 98.748L101.339 100.968C101.215 101.094 101.125 101.248 101.077 101.418C101.029 101.587 101.025 101.766 101.065 101.937C101.105 102.109 101.188 102.267 101.306 102.398C101.424 102.529 101.573 102.627 101.739 102.685L104.144 103.52L103.503 98.748Z" fill="#F4A28C"/>
<path opacity="0.31" d="M110.063 107.056C111.274 106.293 112.353 105.338 113.258 104.23C113.258 104.23 114.838 110.695 109.457 112.95L110.063 107.056Z" fill="#CE8172"/>
<path d="M103.915 86.206C103.915 86.206 99.094 90.68 104.693 93.461C110.292 96.242 110.727 95.052 110.727 95.052C110.727 95.052 107.842 102.605 113.201 103.864L116.155 102.719C116.155 102.719 122.658 94.308 119.521 90.474C119.521 90.452 115.101 78.653 103.915 86.206Z" fill="#24285B"/>
<path d="M110.029 119.644C110.029 119.644 145.307 112.034 151.444 127.472C157.581 142.909 133.444 191.556 133.444 191.556L99.85 189.771C99.85 189.771 58.813 139.728 110.029 119.644Z" fill="#4D34FA"/>
<path opacity="0.08" d="M115.88 141.078L127.696 147.212C127.696 147.212 127.502 172.857 109.445 190.286L99.839 189.771C98.947 188.73 98.129 187.628 97.388 186.475C96.587 185.091 115.88 141.078 115.88 141.078Z" fill="black"/>
<path d="M109.812 102.101C109.812 102.101 112.227 97.421 114.392 99.812C116.556 102.204 112.502 106.667 109.812 102.101Z" fill="#F4A28C"/>
<path d="M50.0769 126.82L87.255 111.233L116.43 136.867C116.43 136.867 113.899 171.816 93.976 190.023C91.648 192.186 88.891 193.837 85.884 194.867C82.876 195.897 79.686 196.284 76.519 196.002C73.353 195.721 70.281 194.777 67.503 193.232C64.725 191.688 62.302 189.576 60.393 187.036C52.275 176.29 44.89 157.603 50.0769 126.82Z" fill="#F98C3E"/>
<path opacity="0.57" d="M60.164 135.757L84.793 125.458L104.144 142.452C104.144 142.452 102.461 165.648 89.259 177.721C87.713 179.158 85.882 180.253 83.884 180.937C81.887 181.62 79.768 181.875 77.665 181.687C75.563 181.498 73.523 180.869 71.68 179.84C69.837 178.812 68.23 177.408 66.966 175.718C61.618 168.577 56.706 156.184 60.164 135.757Z" fill="white"/>
<path d="M132.288 122.036C134.593 120.423 137.36 119.598 140.173 119.687C142.986 119.776 145.695 120.773 147.894 122.528C152.818 126.339 159.745 133.754 164.325 147.235C172.077 170.122 188.576 171.564 208.052 154.433L213.136 160.99C213.136 160.99 170.382 203.057 137.635 155.12C123.758 134.842 126.895 125.95 132.288 122.036Z" fill="#00B9E4"/>
<path d="M132.288 122.036C134.593 120.423 137.36 119.598 140.173 119.687C142.986 119.776 145.695 120.773 147.894 122.528C152.818 126.339 159.745 133.754 164.325 147.235C172.077 170.122 188.576 171.564 208.052 154.433L213.136 160.99C213.136 160.99 170.382 203.057 137.635 155.12C123.758 134.842 126.895 125.95 132.288 122.036Z" fill="#9F91FC"/>
<path d="M99.85 189.771L85.286 201.215C81.881 203.89 79.455 207.613 78.383 211.807C77.31 216.001 77.652 220.431 79.355 224.411L83.248 233.497H90.118L88.114 221.573C87.69 219.066 88.05 216.489 89.144 214.194C90.238 211.898 92.013 209.996 94.228 208.745C103.795 203.331 113.795 198.718 124.124 194.955L133.479 191.522L99.85 189.771Z" fill="#24285B"/>
<path opacity="0.47" d="M205.11 142.554L181.637 103.589L182.633 89.261L195.286 97.261L212.026 139.934L205.11 142.554Z" fill="#F98C3E"/>
<path d="M202.259 143.115L204.526 147.464L208.007 145.644L216.319 161.574L220.957 159.159L212.644 143.23L216.125 141.422L213.858 137.073L202.259 143.115Z" fill="#FFD200"/>
<path opacity="0.57" d="M202.259 143.115L204.526 147.464L208.007 145.644L216.319 161.574L220.957 159.159L212.644 143.23L216.125 141.422L213.858 137.073L202.259 143.115Z" fill="white"/>
<path d="M182.634 89.261L208.35 139.945L211.407 138.355L195.286 97.261L182.634 89.261Z" fill="#F98C3E"/>
<path d="M133.444 191.545L163.443 231.529L155.852 235.385C155.852 235.385 131.612 203.606 109.731 196.946L133.444 191.545Z" fill="#24285B"/>
<path d="M209.289 156.024C209.289 156.024 212.461 149.535 215.163 148.86C217.865 148.185 223.739 156.733 212.22 159.812L209.289 156.024Z" fill="#F4A28C"/>
<path d="M161.371 232.936C161.371 232.936 163.752 236.003 166.981 235.225C170.21 234.447 172.031 237.285 169.466 239.001C166.901 240.718 158.428 239.448 158.428 239.448L157.157 234.87L161.371 232.936Z" fill="#4D34FA"/>
<path opacity="0.45" d="M35.4666 106.599C54.861 106.599 70.584 90.885 70.584 71.501C70.584 52.117 54.861 36.4033 35.4666 36.4033C16.072 36.4033 0.349487 52.117 0.349487 71.501C0.349487 90.885 16.072 106.599 35.4666 106.599Z" fill="#F0EDFF"/>
<path d="M51.76 64.715C51.223 61.919 49.9774 59.307 48.1412 57.13C46.3051 54.953 43.9403 53.283 41.2735 52.282C38.6067 51.28 35.7272 50.98 32.9109 51.409C30.0946 51.839 27.4359 52.984 25.1894 54.735C22.9429 56.486 21.184 58.784 20.0811 61.409C18.9783 64.035 18.5684 66.899 18.8908 69.728C19.2133 72.557 20.2572 75.256 21.9226 77.566C23.5879 79.876 25.819 81.721 28.4019 82.922L30.3599 93.084L35.1918 92.157L33.7033 84.398C34.506 84.478 35.3133 84.501 36.1192 84.467L37.5161 91.71L42.348 90.784L40.9626 83.54C41.8198 83.224 42.6506 82.842 43.4472 82.395L44.9586 90.246L49.7905 89.319L47.7983 78.939C49.5124 77.035 50.762 74.76 51.449 72.292C52.137 69.824 52.243 67.231 51.76 64.715ZM29.7645 75.438C26.9821 75.975 24.2341 73.836 23.6273 70.654C23.0204 67.473 24.7723 64.475 27.5546 63.937C30.337 63.399 33.0735 65.55 33.6918 68.72C34.3101 71.89 32.5812 74.9 29.7988 75.426L29.7645 75.438ZM43.2183 72.851C40.4474 73.389 37.6993 71.249 37.081 68.068C36.4627 64.887 38.226 61.888 41.0084 61.351C43.7908 60.813 46.5273 62.964 47.1456 66.134C47.7639 69.304 46.035 72.313 43.2526 72.84L43.2183 72.851Z" fill="#B1A7F5"/>
<path opacity="0.45" d="M319.14 117.493C338.535 117.493 354.258 101.779 354.258 82.395C354.258 63.012 338.535 47.298 319.14 47.298C299.746 47.298 284.023 63.012 284.023 82.395C284.023 101.779 299.746 117.493 319.14 117.493Z" fill="#F0EDFF"/>
<path d="M336.773 83.826C337.578 81.094 337.668 78.202 337.033 75.426C336.399 72.65 335.062 70.083 333.15 67.972C331.238 65.861 328.816 64.275 326.116 63.368C323.415 62.461 320.527 62.262 317.727 62.79C314.928 63.318 312.311 64.556 310.127 66.385C307.944 68.215 306.267 70.573 305.257 73.236C304.247 75.899 303.939 78.776 304.361 81.592C304.783 84.408 305.921 87.069 307.667 89.319L304.805 99.263L309.534 100.648L311.767 93.061C312.441 93.491 313.145 93.874 313.873 94.205L311.744 101.335L316.473 102.719L318.545 95.613C319.447 95.742 320.359 95.792 321.27 95.762L318.98 103.44L323.709 104.825L326.686 94.686C329.095 93.781 331.26 92.33 333.011 90.445C334.762 88.56 336.05 86.294 336.773 83.826ZM312.305 83.299C309.591 82.498 308.125 79.34 309.041 76.239C309.957 73.137 312.889 71.261 315.602 72.062C318.316 72.863 319.782 76.021 318.866 79.122C317.95 82.224 315.018 84.1 312.305 83.299ZM325.415 87.156C322.701 86.355 321.236 83.196 322.152 80.095C323.068 76.994 325.999 75.117 328.713 75.918C331.426 76.719 332.892 79.866 331.987 82.979C331.083 86.092 328.163 87.946 325.415 87.156Z" fill="#B1A7F5"/>
<path opacity="0.45" d="M220.132 44.4368H156.516V66.145H220.132V44.4368Z" fill="#F0EDFF"/>
<path d="M166.363 58.158C167.976 58.158 169.283 56.851 169.283 55.24C169.283 53.628 167.976 52.322 166.363 52.322C164.75 52.322 163.443 53.628 163.443 55.24C163.443 56.851 164.75 58.158 166.363 58.158Z" fill="#4D34FA"/>
<path d="M176.576 58.158C178.189 58.158 179.496 56.851 179.496 55.24C179.496 53.628 178.189 52.322 176.576 52.322C174.964 52.322 173.657 53.628 173.657 55.24C173.657 56.851 174.964 58.158 176.576 58.158Z" fill="#4D34FA"/>
<path d="M187.259 58.158C188.872 58.158 190.179 56.851 190.179 55.24C190.179 53.628 188.872 52.322 187.259 52.322C185.647 52.322 184.34 53.628 184.34 55.24C184.34 56.851 185.647 58.158 187.259 58.158Z" fill="#4D34FA"/>
<path d="M197.473 58.158C199.085 58.158 200.392 56.851 200.392 55.24C200.392 53.628 199.085 52.322 197.473 52.322C195.86 52.322 194.553 53.628 194.553 55.24C194.553 56.851 195.86 58.158 197.473 58.158Z" fill="#4D34FA"/>
<path d="M208.488 58.158C210.1 58.158 211.407 56.851 211.407 55.24C211.407 53.628 210.1 52.322 208.488 52.322C206.875 52.322 205.568 53.628 205.568 55.24C205.568 56.851 206.875 58.158 208.488 58.158Z" fill="#4D34FA"/>
</svg>
