<svg width="16" height="19" viewBox="0 0 16 19" fill="none" xmlns="http://www.w3.org/2000/svg">
<path d="M14.8729 5.03654L10.6775 0.31199C10.5891 0.214105 10.4813 0.135792 10.3609 0.0820894C10.2404 0.0283864 10.1101 0.00048172 9.97825 0.000170061H2.41897C2.10502 -0.0035747 1.79341 0.0545591 1.50193 0.171252C1.21046 0.287945 0.94482 0.460911 0.720193 0.680273C0.495567 0.899635 0.31635 1.1611 0.192779 1.44972C0.0692072 1.73835 0.00370062 2.0485 0 2.36245V16.5361C0.00370062 16.85 0.0692072 17.1602 0.192779 17.4488C0.31635 17.7374 0.495567 17.9989 0.720193 18.2183C0.94482 18.4376 1.21046 18.6106 1.50193 18.7273C1.79341 18.844 2.10502 18.9021 2.41897 18.8984H12.6996C13.0135 18.9021 13.3251 18.844 13.6166 18.7273C13.9081 18.6106 14.1737 18.4376 14.3984 18.2183C14.623 17.9989 14.8022 17.7374 14.9258 17.4488C15.0494 17.1602 15.1149 16.85 15.1186 16.5361V5.66963C15.1179 5.43545 15.0304 5.20983 14.8729 5.03654ZM9.4491 1.88999L12.9831 5.66963H10.1483C10.0494 5.66366 9.95261 5.63803 9.86367 5.59426C9.77473 5.55048 9.6954 5.48943 9.63031 5.41466C9.56522 5.33989 9.51567 5.25291 9.48456 5.15879C9.45344 5.06466 9.44139 4.96529 9.4491 4.86646V1.88999Z" fill="white"/>
</svg>
