<svg width="24" height="24" viewBox="0 0 24 24" fill="none" xmlns="http://www.w3.org/2000/svg">
<path fill-rule="evenodd" clip-rule="evenodd" d="M24 12C24.0048 13.8633 23.5695 15.7015 22.7294 17.3647C21.7333 19.3577 20.202 21.0341 18.307 22.206C16.412 23.3779 14.2281 23.9991 12 24C10.1367 24.0048 8.29853 23.5695 6.63531 22.7294L0 24L1.27062 17.3647C0.43053 15.7015 -0.004818 13.8633 4.02225e-05 12C0.000902387 9.7719 0.622078 7.58804 1.79399 5.69303C2.9659 3.79803 4.64227 2.26672 6.63531 1.27062C8.29853 0.43053 10.1367 -0.004818 12 4.02184e-05H12.7059C15.6485 0.162381 18.4278 1.4044 20.5117 3.4883C22.5956 5.5722 23.8376 8.35152 24 11.2941V12Z" fill="white"/>
<rect x="11.3333" y="8" width="1.33333" height="8" rx="0.666667" fill="#4D34FA"/>
<path d="M8.66667 12.6667C8.29848 12.6667 8 12.3682 8 12V12C8 11.6318 8.29848 11.3333 8.66667 11.3333L15.3333 11.3333C15.7015 11.3333 16 11.6318 16 12V12C16 12.3682 15.7015 12.6667 15.3333 12.6667L8.66667 12.6667Z" fill="#4D34FA"/>
</svg>
