<svg width="21" height="21" viewBox="0 0 21 21" fill="none" xmlns="http://www.w3.org/2000/svg">
<path d="M10.5049 15.5049V10.5049L15.5049 10.5049M10.5049 19.4949V19.5049M15.5049 14.4949V14.5049M19.5049 10.4949V10.5049M10.5049 1.49488V1.50488M15.5049 19.5049V18.0049M10.5049 7.00488V5.00488M19.5049 19.5049V14.5049M1.61387 10.4949H7.61387M19.5049 4.90488V3.10488C19.5049 2.54478 19.5049 2.26478 19.3959 2.05088C19.3 1.86268 19.1471 1.70978 18.9589 1.61388C18.745 1.50488 18.465 1.50488 17.9049 1.50488H16.1049C15.5448 1.50488 15.2648 1.50488 15.0509 1.61388C14.8627 1.70978 14.7098 1.86268 14.6139 2.05088C14.5049 2.26478 14.5049 2.54478 14.5049 3.10488V4.90488C14.5049 5.46498 14.5049 5.74498 14.6139 5.95888C14.7098 6.14708 14.8627 6.29998 15.0509 6.39588C15.2648 6.50488 15.5448 6.50488 16.1049 6.50488H17.9049C18.465 6.50488 18.745 6.50488 18.9589 6.39588C19.1471 6.29998 19.3 6.14708 19.3959 5.95888C19.5049 5.74498 19.5049 5.46498 19.5049 4.90488ZM6.50488 4.90488L6.50488 3.10488C6.50488 2.54478 6.50488 2.26478 6.39589 2.05088C6.30001 1.86268 6.14703 1.70978 5.95887 1.61388C5.74496 1.50488 5.46493 1.50488 4.90488 1.50488H3.10488C2.54483 1.50488 2.2648 1.50488 2.05089 1.61388C1.86273 1.70978 1.70975 1.86268 1.61387 2.05088C1.50488 2.26478 1.50488 2.54478 1.50488 3.10488L1.50488 4.90488C1.50488 5.46498 1.50488 5.74498 1.61387 5.95888C1.70975 6.14708 1.86273 6.29998 2.05089 6.39588C2.2648 6.50488 2.54483 6.50488 3.10488 6.50488H4.90488C5.46493 6.50488 5.74496 6.50488 5.95887 6.39588C6.14703 6.29998 6.30001 6.14708 6.39589 5.95888C6.50488 5.74498 6.50488 5.46498 6.50488 4.90488ZM6.50488 17.9049V16.1049C6.50488 15.5448 6.50488 15.2648 6.39589 15.0509C6.30001 14.8627 6.14703 14.7098 5.95887 14.6139C5.74496 14.5049 5.46493 14.5049 4.90488 14.5049H3.10488C2.54483 14.5049 2.2648 14.5049 2.05089 14.6139C1.86273 14.7098 1.70975 14.8627 1.61387 15.0509C1.50488 15.2648 1.50488 15.5448 1.50488 16.1049L1.50488 17.9049C1.50488 18.4649 1.50488 18.745 1.61387 18.9589C1.70975 19.147 1.86273 19.3 2.05089 19.3959C2.2648 19.5049 2.54483 19.5049 3.10488 19.5049H4.90488C5.46493 19.5049 5.74496 19.5049 5.95887 19.3959C6.14703 19.3 6.30001 19.147 6.39589 18.9589C6.50488 18.745 6.50488 18.4649 6.50488 17.9049Z" stroke="#1A1167" stroke-width="2" stroke-linecap="round" stroke-linejoin="round"/>
<rect x="1.50488" y="19.5049" width="5" height="5" rx="1" transform="rotate(-90 1.50488 19.5049)" fill="#1A1167"/>
<rect x="1.50488" y="6.50488" width="5" height="5" rx="1" transform="rotate(-90 1.50488 6.50488)" fill="#1A1167"/>
<rect x="14.5049" y="6.50488" width="5" height="5" rx="1" transform="matrix(0 -1 1 0 8 21.0098)" fill="#1A1167"/>
</svg>
